<svg width="36" height="47" viewBox="0 0 36 47" fill="none" xmlns="http://www.w3.org/2000/svg">
<path d="M18 47C18 47 36 30.2974 36 17.625C36 12.9506 34.1036 8.46757 30.7279 5.16224C27.3523 1.85691 22.7739 0 18 0C13.2261 0 8.64773 1.85691 5.27208 5.16224C1.89642 8.46757 7.11366e-08 12.9506 0 17.625C0 30.2974 18 47 18 47ZM18 26.4375C15.6131 26.4375 13.3239 25.509 11.636 23.8564C9.94821 22.2037 9 19.9622 9 17.625C9 15.2878 9.94821 13.0463 11.636 11.3936C13.3239 9.74096 15.6131 8.8125 18 8.8125C20.3869 8.8125 22.6761 9.74096 24.364 11.3936C26.0518 13.0463 27 15.2878 27 17.625C27 19.9622 26.0518 22.2037 24.364 23.8564C22.6761 25.509 20.3869 26.4375 18 26.4375Z" fill="black"/>
</svg>
