<svg width="80" height="80" viewBox="0 0 80 80" fill="none" xmlns="http://www.w3.org/2000/svg">
<g clip-path="url(#clip0_399_353)">
<path d="M79.9997 63.6634C79.5183 63.9749 79.0653 64.4279 78.5415 64.5553C73.1902 65.7445 67.8107 66.8629 62.4452 68.0379C62.0064 68.137 61.5675 68.3493 61.1853 68.6041C56.9807 71.5346 52.578 74.0828 47.5948 75.456C47.4249 75.4985 47.2409 75.5693 47.071 75.5834C45.4854 75.7958 44.183 76.4612 42.9655 77.5371C41.0968 79.1793 38.223 78.6271 36.8073 76.5603C36.241 75.725 36.0711 75.6967 35.2217 76.2771C32.9708 77.8344 29.8846 76.9566 28.7946 74.4367C28.7096 74.2244 28.6247 74.012 28.5397 73.7997C25.3828 74.1819 24.1511 73.5873 22.8346 70.9966C21.6737 71.9027 20.3854 72.3415 18.899 71.9876C17.0303 71.5346 15.7137 70.034 15.6004 68.1087C15.5721 67.5849 15.3598 67.4574 14.9209 67.3583C11.9338 66.7638 8.9609 66.1409 5.98798 65.5321C4.45905 65.2207 2.93011 64.8951 1.40118 64.5695C0.0987557 64.3005 -0.212694 63.8192 0.0704422 62.5309C1.52859 55.6932 2.98674 48.8413 4.45905 42.0035C4.71387 40.7861 5.1952 40.4888 6.39853 40.7436C10.8013 41.6921 15.1899 42.6406 19.5927 43.5608C20.0032 43.6457 20.4704 43.6174 20.8809 43.5042C25.1138 42.3433 29.3042 40.9559 33.5796 40.0074C40.5589 38.4785 47.4957 38.79 54.2201 41.4656C55.7066 42.0602 57.1223 42.8671 58.5946 43.5325C58.9202 43.674 59.3449 43.759 59.6847 43.6882C64.3139 42.7255 68.9432 41.7204 73.5725 40.7294C74.705 40.4888 75.2005 40.8144 75.4553 41.9894C76.9135 48.7563 78.3575 55.5233 79.8156 62.2761C79.8439 62.4176 79.9289 62.5592 79.9855 62.7008V63.6351L79.9997 63.6634ZM41.0968 68.8307C43.5884 68.8873 45.542 70.1897 45.8535 73.3042C50.865 72.1433 55.2111 69.6659 59.444 66.7355C59.1892 66.4665 58.991 66.2258 58.7645 66.0135C56.9383 64.1872 54.8289 62.7716 52.5638 61.5682C50.2987 60.3507 47.9912 59.204 45.7119 58.0007C42.0453 56.0612 38.6477 53.7961 36.2835 50.2286C36.0287 50.4268 35.8163 50.5826 35.604 50.7383C33.7211 52.1681 31.6542 53.2582 29.375 53.8811C27.8036 54.3058 26.2039 54.5606 24.6042 54.1076C22.693 53.5696 21.9427 51.8991 22.877 50.1437C23.2593 49.4217 23.7972 48.7422 24.3776 48.1617C25.6801 46.8593 27.0674 45.6135 28.4123 44.3536C28.5681 44.212 28.7096 44.0421 28.9928 43.7307C28.5822 43.8298 28.384 43.8722 28.2 43.9289C25.9066 44.6226 23.6273 45.3587 21.3339 45.9958C20.711 46.1656 20.0174 46.1373 19.3661 46.0807C18.6017 46.0099 17.8514 45.7834 17.0303 45.6135C15.6854 51.9133 14.3546 58.1281 13.0239 64.343C14.0998 64.6119 15.0483 64.8668 16.011 65.0508C16.2516 65.0933 16.5914 64.9658 16.7896 64.796C18.2761 63.5219 19.7059 62.2053 21.1924 60.9312C22.1267 60.1384 23.2451 59.8411 24.4767 60.0251C26.2463 60.28 27.3506 61.3417 28.0159 62.9414C30.6916 60.9029 34.0609 61.7947 35.2359 65.0791C38.8742 64.7818 40.2191 65.6312 41.0968 68.8448V68.8307ZM24.9439 51.4037C24.9864 51.5027 25.0147 51.616 25.0572 51.7151C25.949 51.7151 26.8692 51.8425 27.7328 51.6868C30.734 51.1488 33.2681 49.6482 35.4907 47.5813C36.4251 46.7178 37.2178 46.8027 37.8266 47.8786C39.1149 50.1862 40.8561 52.069 43.0788 53.4564C45.4146 54.9145 47.8354 56.2311 50.2846 57.5052C54.39 59.6287 58.4672 61.7523 61.5817 65.3056C61.6949 65.433 61.9498 65.5463 62.1196 65.518C63.7194 65.1924 65.3049 64.8384 66.9896 64.4704C65.6447 58.1564 64.2998 51.9133 62.9549 45.6135C61.7657 45.8542 60.6473 46.1515 59.5289 46.2931C59.0335 46.3638 58.453 46.2506 57.9859 46.0524C56.5419 45.4012 55.1687 44.5801 53.7105 43.9713C47.5806 41.4231 41.2384 41.1541 34.7829 42.3292C34.4714 42.3858 34.1175 42.5132 33.891 42.7255C31.3003 45.1039 28.7379 47.5105 26.1897 49.9172C25.7225 50.356 25.3828 50.9082 24.9722 51.4037H24.9439ZM6.72413 43.3909C5.36508 49.7473 4.03434 55.9763 2.68945 62.2761C5.35092 62.8423 7.92746 63.3944 10.5465 63.9607C11.9055 57.6326 13.2363 51.3895 14.5811 45.0756C11.9197 44.5093 9.35729 43.9572 6.72413 43.4051V43.3909ZM77.2532 62.2761C75.9083 55.9621 74.5776 49.719 73.2186 43.3909C70.5712 43.9572 67.9947 44.5093 65.3615 45.0756C66.7206 51.4178 68.0513 57.6609 69.3962 63.9466C72.0294 63.3803 74.5918 62.8423 77.2532 62.2619V62.2761ZM20.0598 69.6093C20.2439 69.5385 20.6403 69.4819 20.8951 69.2554C22.3532 68.0096 23.8114 66.7638 25.2129 65.4472C25.9066 64.796 25.8358 63.7201 25.2129 63.0405C24.6183 62.3893 23.5707 62.2194 22.877 62.7999C21.4047 64.0315 19.9607 65.3056 18.5592 66.608C18.0071 67.1318 17.9363 67.8538 18.2619 68.5617C18.5734 69.2412 19.1396 69.5527 20.0457 69.5951L20.0598 69.6093ZM32.9142 74.55C33.1124 74.4651 33.5229 74.4084 33.8061 74.1678C35.2501 72.9361 36.694 71.7045 38.0673 70.4021C38.7751 69.7367 38.7185 68.7032 38.0956 68.0096C37.4727 67.3159 36.4392 67.1602 35.7031 67.7831C34.2449 69.0005 32.8292 70.2605 31.4419 71.5488C30.8756 72.0726 30.7907 72.7804 31.1163 73.4882C31.4277 74.1678 31.994 74.4934 32.9142 74.55ZM27.1524 71.4921C27.3223 71.4213 27.7045 71.3789 27.931 71.1807C29.4316 69.8924 30.9322 68.6183 32.3621 67.2593C32.9991 66.6647 32.9142 65.6454 32.3621 64.98C31.7816 64.3005 30.734 64.074 30.0545 64.6402C28.5397 65.9002 27.0533 67.2026 25.6234 68.5617C25.0855 69.0572 25.0713 69.7792 25.3828 70.4445C25.6942 71.1099 26.2605 71.4355 27.1665 71.478L27.1524 71.4921ZM43.277 73.3891C43.2486 72.469 42.9513 71.9451 42.3568 71.6195C41.7339 71.2656 41.0827 71.2798 40.5164 71.6903C39.9926 72.0726 39.4971 72.4973 39.0441 72.9786C38.407 73.6581 38.4212 74.6349 39.0158 75.3286C39.6103 76.0081 40.6013 76.178 41.3375 75.6542C41.8896 75.2578 42.3992 74.8048 42.8523 74.3093C43.1071 74.0262 43.2062 73.5873 43.277 73.4033V73.3891Z" fill="#698396"/>
<path d="M33.8493 24.9448C32.4053 24.9448 31.0745 24.9306 29.7579 24.9589C29.5173 24.9589 29.2483 25.1854 29.0643 25.3836C27.5495 27.04 26.063 28.7105 24.5341 30.3527C24.2226 30.6783 23.8121 31.0039 23.4015 31.1171C22.1558 31.4427 21.094 30.3951 21.2639 29.0786C21.4338 27.762 21.6178 26.4454 21.8018 25.143C21.8018 25.1147 21.7877 25.1005 21.731 24.9731C20.6976 24.9731 19.6075 24.9731 18.5316 24.9731C15.4171 24.9731 13.9023 23.4442 13.9023 20.3014C13.9023 16.0826 13.9023 11.8639 13.9023 7.64518C13.9023 4.84214 15.5162 3.19995 18.3051 3.19995C26.1197 3.19995 33.9342 3.19995 41.7487 3.19995C44.4952 3.19995 46.0949 4.81382 46.109 7.5744C46.109 8.35302 46.109 9.13165 46.109 10.0377H47.0434C51.885 10.0377 56.7266 10.0377 61.5824 10.0377C64.4704 10.0377 66.0701 11.6374 66.0701 14.5395C66.0701 18.8149 66.0701 23.0761 66.0701 27.3514C66.0701 30.1686 64.4704 31.7683 61.6673 31.7683C60.5206 31.7683 59.3881 31.7683 58.1281 31.7683C58.3122 33.0991 58.4679 34.3874 58.6519 35.6473C58.8077 36.7091 58.4821 37.4594 57.7034 37.8275C56.9107 38.2097 56.1462 38.0115 55.41 37.1904C53.9236 35.5482 52.4513 33.8919 50.9365 32.278C50.6817 31.9949 50.2003 31.7825 49.8181 31.7825C45.9391 31.74 42.0602 31.7683 38.1812 31.7542C35.449 31.7542 33.8634 30.1686 33.8493 27.4505C33.8493 26.6436 33.8493 25.8367 33.8493 24.9165V24.9448ZM24.1377 26.8418C24.1377 26.8418 24.2651 26.8843 24.3217 26.8984C25.3552 25.7659 26.4028 24.6475 27.3938 23.4725C28.045 22.6938 28.7953 22.4249 29.7863 22.4249C33.7643 22.4532 37.7565 22.4249 41.7346 22.4249C43.1361 22.4249 43.6033 21.9577 43.6033 20.5562C43.6033 16.2384 43.6033 11.9064 43.6033 7.58856C43.6033 6.18703 43.122 5.69155 41.7346 5.69155C33.92 5.69155 26.1055 5.69155 18.3051 5.69155C16.9319 5.69155 16.4081 6.21535 16.4081 7.5744C16.4081 11.8922 16.4081 16.2242 16.4081 20.542C16.4081 21.9294 16.9177 22.4249 18.2909 22.439C19.6925 22.439 21.1081 22.4249 22.5097 22.439C23.9112 22.4673 24.6049 23.3026 24.4208 24.6758C24.3217 25.3836 24.2368 26.1056 24.1519 26.8135L24.1377 26.8418ZM46.109 12.5576C46.109 12.954 46.109 13.2371 46.109 13.5202C46.109 15.9977 46.1232 18.4751 46.109 20.9384C46.0807 23.2035 44.5376 24.8315 42.2584 24.9306C40.5879 25.0014 38.9315 24.9589 37.261 24.9589C36.9779 24.9589 36.7089 24.9589 36.4683 24.9589C36.4116 25.1147 36.3833 25.1713 36.3833 25.2138C36.3833 25.9499 36.3692 26.6719 36.3833 27.4081C36.3833 28.8096 36.8505 29.2909 38.252 29.2909C41.7629 29.2909 45.2879 29.2909 48.7988 29.2909C52.0549 29.2909 51.3329 28.9795 53.5697 31.4286C54.2917 32.2214 55.0137 33.0141 55.8772 33.9768C55.764 33.0425 55.679 32.3488 55.5799 31.6551C55.3676 30.0978 56.0754 29.3051 57.6751 29.2909C59.0342 29.2909 60.3791 29.2909 61.7381 29.2909C63.0547 29.2909 63.5644 28.7813 63.5644 27.4364C63.5644 23.1186 63.5644 18.7866 63.5644 14.4688C63.5644 13.0814 63.0405 12.5717 61.6815 12.5717C56.7549 12.5717 51.8425 12.5717 46.916 12.5717C46.6895 12.5717 46.4488 12.5717 46.109 12.5717V12.5576Z" fill="#698396"/>
<path d="M29.9134 11.5101C27.4926 11.5101 25.0718 11.5101 22.6509 11.5101C22.3678 11.5101 22.0705 11.5101 21.8015 11.4535C21.1786 11.3261 20.8672 10.9014 20.853 10.2785C20.853 9.66976 21.1503 9.2309 21.7591 9.07518C22.0139 9.01855 22.2687 9.00439 22.5377 9.00439C27.5067 9.00439 32.4899 9.00439 37.4589 9.00439C37.643 9.00439 37.827 9.00439 38.0111 9.01855C38.7189 9.10349 39.1861 9.58482 39.2002 10.236C39.2002 10.9156 38.7189 11.4535 37.9686 11.4818C37.1333 11.5243 36.2981 11.496 35.4628 11.496C33.6083 11.496 31.7679 11.496 29.9134 11.496V11.5101Z" fill="#698396"/>
<path d="M26.9969 19.1405C25.4396 19.1405 23.8682 19.1405 22.311 19.1405C21.3766 19.1405 20.8387 18.6592 20.8528 17.8947C20.8528 17.1303 21.4049 16.6489 22.3251 16.6348C25.4679 16.6348 28.6249 16.6348 31.7677 16.6348C32.6737 16.6348 33.2542 17.1586 33.24 17.8947C33.24 18.645 32.6737 19.1264 31.7535 19.1264C30.168 19.1264 28.5824 19.1264 26.9969 19.1264V19.1405Z" fill="#698396"/>
</g>
<defs>
<clipPath id="clip0_399_353">
<rect width="80" height="80" fill="white"/>
</clipPath>
</defs>
</svg>
