<svg width="80" height="80" viewBox="0 0 80 80" fill="none" xmlns="http://www.w3.org/2000/svg">
<g clip-path="url(#clip0_399_364)">
<path d="M17.4241 21.9838C17.6481 22.0318 17.8881 21.9998 18.1281 21.9998C25.2161 21.9998 48.2881 21.9998 55.3761 21.9998C55.6161 21.9998 55.84 22.0158 56.08 21.9838C56.752 21.8558 57.1521 21.4558 57.1521 20.7678C57.1521 20.0798 56.752 19.6638 56.08 19.5518C55.856 19.5038 55.6161 19.5358 55.3761 19.5358C51.8401 19.5358 21.6641 19.5358 18.1281 19.5358C17.8881 19.5358 17.6641 19.5198 17.4241 19.5518C16.7521 19.6798 16.3521 20.0798 16.3521 20.7678C16.3521 21.4558 16.7521 21.8558 17.4241 21.9838Z" fill="#698396"/>
<path d="M17.8881 30.688C21.3761 30.688 48.2401 30.688 50.1761 30.688C51.0721 30.688 51.6641 30.064 51.5521 29.296C51.4561 28.608 50.9441 28.208 50.0961 28.208C47.3761 28.208 20.5281 28.208 17.8081 28.208C16.8481 28.208 16.2401 28.8 16.3521 29.6C16.4481 30.304 16.9761 30.688 17.8881 30.688Z" fill="#698396"/>
<path d="M17.8881 39.3599C21.3761 39.3599 48.2401 39.3599 50.1761 39.3599C51.0721 39.3599 51.6641 38.7359 51.5521 37.9679C51.4561 37.2799 50.9441 36.8799 50.0961 36.8799C47.3761 36.8799 20.5281 36.8799 17.8081 36.8799C16.8481 36.8799 16.2401 37.4719 16.3521 38.2719C16.4481 38.9759 16.9761 39.3599 17.8881 39.3599Z" fill="#698396"/>
<path d="M17.8881 48.032C21.3761 48.032 37.0401 48.032 38.9761 48.032C39.8721 48.032 40.4641 47.408 40.3521 46.64C40.2561 45.952 39.7441 45.552 38.8961 45.552C36.1761 45.552 20.5281 45.552 17.8081 45.552C16.8481 45.552 16.2401 46.144 16.3521 46.944C16.4481 47.648 16.9761 48.032 17.8881 48.032Z" fill="#698396"/>
<path d="M17.8881 56.032C21.3761 56.032 32.2401 56.032 34.1761 56.032C35.0721 56.032 35.6641 55.408 35.5521 54.64C35.4561 53.952 34.9441 53.552 34.0961 53.552C31.3761 53.552 20.5281 53.552 17.8081 53.552C16.8481 53.552 16.2401 54.144 16.3521 54.944C16.4481 55.648 16.9761 56.032 17.8881 56.032Z" fill="#698396"/>
<path d="M67.712 65.856C67.36 65.856 67.008 65.856 66.656 65.856V47.4879H64.064V65.808H12.048V14.2559H64.064V29.8879H66.656V14.2079C66.96 14.2079 67.2 14.2079 67.44 14.2079C69.392 14.2079 70.32 13.248 70.32 11.28C70.32 9.69595 70.32 8.12795 70.32 6.54395C70.32 4.59195 69.376 3.64795 67.408 3.64795C59.6 3.64795 16.352 3.64795 8.49599 3.64795C6.81599 3.64795 5.79199 4.67195 5.79199 6.35195C5.79199 8.07995 5.79199 9.82395 5.79199 11.5519C5.79199 13.1519 6.81599 14.1759 8.39999 14.1919C8.75199 14.1919 9.10399 14.1919 9.45599 14.1919V65.856C9.15199 65.856 8.91199 65.856 8.67199 65.856C6.71999 65.856 5.79199 66.816 5.79199 68.784C5.79199 70.368 5.79199 71.936 5.79199 73.52C5.79199 75.472 6.73599 76.4159 8.70399 76.4159C16.512 76.4159 59.76 76.4159 67.616 76.4159C69.296 76.4159 70.32 75.392 70.32 73.712C70.32 71.984 70.32 70.24 70.32 68.512C70.32 66.912 69.296 65.8879 67.712 65.8719V65.856ZM8.33599 11.68V6.19195H67.808V11.68H8.33599ZM67.776 73.8719H8.30399V68.384H67.776V73.8719Z" fill="#698396"/>
<path d="M66.5758 25.8399C67.8398 24.4799 69.2798 23.5359 71.0718 23.1839C74.3038 22.5759 77.4878 24.0319 79.1038 26.8799C80.6878 29.6799 80.3358 33.1679 78.1758 35.5999C77.4718 36.3839 76.7038 37.1199 75.9518 37.8719C71.1358 42.6879 66.3358 47.5039 61.5038 52.3039L58.4478 55.3599C57.0878 56.7199 55.9038 57.9519 54.6558 59.1199C54.2558 59.5039 53.7278 59.8399 53.1998 59.9999C49.3118 61.1999 45.4078 62.3519 41.5038 63.5359C40.8798 63.7279 40.2718 63.8879 39.7278 63.3279C39.2318 62.7999 39.3758 62.2239 39.5518 61.6159C40.5758 58.2239 41.6638 54.8479 42.5758 51.4399C43.0238 49.7599 43.8078 48.4159 45.1038 47.2639C46.4158 46.0959 47.6158 44.7999 49.0238 43.3919L52.0318 40.3359C56.1118 36.2879 66.5758 25.8239 66.5758 25.8239V25.8399ZM73.7598 36.3999C74.6078 35.5679 75.4878 34.7679 76.2878 33.8879C77.7278 32.2879 77.9038 29.9039 76.7998 28.0479C75.6958 26.1919 73.5358 25.2799 71.4238 25.7279C69.2158 26.1919 68.1438 28.0639 66.7038 29.3279C69.1038 31.7279 71.4238 34.0479 73.7758 36.3999H73.7598ZM65.4878 39.7279C61.3118 43.9039 57.1038 48.1119 52.9598 52.2719C54.3998 52.4159 54.6238 52.6879 54.6238 54.2879C54.6238 54.6559 54.6238 55.0399 54.6238 55.2479C59.0398 50.8319 63.4558 46.4159 67.8078 42.0639C67.0558 41.3119 66.2238 40.4799 65.4878 39.7279ZM50.8318 50.1439C55.0078 45.9679 59.2318 41.7599 63.3758 37.6159C62.6238 36.8479 61.7918 35.9999 61.0398 35.2159C56.6398 39.6159 52.2238 44.0319 47.7758 48.4799C48.1278 48.4799 48.5118 48.4799 48.8958 48.4799C50.4478 48.4799 50.7358 48.7519 50.8478 50.1439H50.8318ZM48.2498 50.5C45.7277 49.9121 45.667 50.1439 45.2498 51.5C45.1858 51.708 44.5598 53.6799 44.5598 53.8879C44.5598 54.1119 44.5918 54.4159 44.7358 54.5599C45.9838 55.8559 47.2638 57.1199 48.5598 58.3839C48.7038 58.5119 48.9918 58.6079 49.1678 58.5599C50.1278 58.3039 51.0878 57.9999 52.0478 57.7119V54.8479C51.3278 54.8479 50.6398 54.8479 49.9678 54.8479C48.6878 54.8479 48.2878 54.4319 48.2718 53.1199C48.2718 52.4639 48.2498 50.5 48.2498 50.5ZM62.9118 33.1199C65.2958 35.5039 67.6318 37.8239 69.8398 40.0159C70.4318 39.4559 71.0878 38.8319 71.5998 38.3679C69.2958 36.0639 66.9758 33.7279 64.6718 31.4399C64.1278 31.9519 63.5038 32.5599 62.9118 33.1199ZM42.5438 60.5599C43.7438 60.1919 44.8318 59.8719 45.7758 59.5839C45.0078 58.8159 44.2398 58.0479 43.5038 57.3119C43.2158 58.2719 42.8958 59.3439 42.5438 60.5599Z" fill="#698396"/>
</g>
<defs>
<clipPath id="clip0_399_364">
<rect width="80" height="80" fill="white"/>
</clipPath>
</defs>
</svg>
