<svg width="80" height="80" viewBox="0 0 80 80" fill="none" xmlns="http://www.w3.org/2000/svg">
<path d="M17.9362 69.5521C17.3762 69.0401 16.9602 68.5601 16.4642 68.2241C14.7362 66.9921 13.0082 65.7441 11.2002 64.6241C9.16823 63.3761 7.85623 61.6161 7.10423 59.4241C5.64823 55.1841 4.25623 50.9281 2.84823 46.6881C2.35223 45.2001 1.84023 43.7121 1.37623 42.2081C0.752229 40.2081 1.21623 38.4161 2.59223 36.8641C4.03223 35.2481 6.06423 35.0401 7.84023 36.2721C9.15223 37.1841 10.0002 38.4801 10.6402 39.9041C11.9202 42.8321 13.1682 45.7761 14.4002 48.7201C14.5922 49.1681 14.8002 49.3281 15.3442 49.4081C16.2562 49.5361 17.1682 49.8401 17.9842 50.2721C18.9442 50.7841 19.7922 51.5201 20.6882 52.1761C22.2082 53.2801 23.7282 54.3361 25.5682 54.9601C28.2722 55.8881 30.0002 57.8881 30.7522 60.6561C31.4882 63.3921 32.1442 66.1441 32.8162 68.8801C32.9442 69.4241 33.1202 69.6961 33.7762 69.7121C35.2642 69.7601 36.2722 70.7841 36.3362 72.2721C36.4002 73.6001 36.4002 74.9441 36.3362 76.2881C36.2722 77.8881 35.1842 78.9121 33.5842 78.9121C28.3362 78.9121 23.0882 78.9121 17.8402 78.9121C16.2082 78.9121 15.1042 77.8561 15.0562 76.2241C15.0082 74.9441 15.0242 73.6481 15.0562 72.3681C15.0882 70.9441 15.8882 70.0321 17.2802 69.7281C17.4242 69.6961 17.5842 69.6481 17.9362 69.5521ZM30.7362 69.6161C30.1282 67.1201 29.4722 64.6881 28.9442 62.2401C28.2882 59.1041 26.3842 57.2481 23.3442 56.4001C22.8002 56.2561 22.2722 55.9681 21.8082 55.6481C20.0802 54.4481 18.4002 53.1841 16.6882 52.0001C15.2962 51.0401 13.5522 51.7601 13.3122 53.3761C13.1682 54.3361 13.6642 55.0241 14.4162 55.5681C16.7202 57.2161 19.0242 58.8641 21.3282 60.5281C21.4562 60.6241 21.5842 60.7041 21.7122 60.8001C22.2882 61.2641 22.4322 61.8561 22.0802 62.3841C21.7122 62.9281 21.0722 63.0401 20.4322 62.5761C17.9682 60.8321 15.5202 59.0721 13.0722 57.2961C10.7042 55.5681 10.4162 52.8161 12.3522 50.5921C12.4962 50.4321 12.5762 50.0641 12.4962 49.8721C11.2002 46.7841 9.92023 43.6801 8.52823 40.6241C8.11223 39.7281 7.44023 38.8961 6.73623 38.1761C6.01623 37.4401 5.15223 37.4721 4.48023 38.0961C3.55223 38.9601 3.13623 40.0321 3.44023 41.2961C3.56823 41.8561 3.77623 42.4001 3.96823 42.9441C5.69623 48.1441 7.40823 53.3441 9.15223 58.5281C9.76023 60.3521 10.8322 61.7921 12.5122 62.8321C14.3202 63.9521 16.0162 65.2321 17.7762 66.4161C18.7522 67.0881 19.5522 67.9041 19.9522 69.0401C20.1282 69.5681 20.4162 69.6801 20.9282 69.6801C23.9522 69.6641 26.9602 69.6801 29.9842 69.6801C30.2082 69.6801 30.4482 69.6481 30.7362 69.6321V69.6161ZM25.6962 76.7041C28.2402 76.7041 30.7842 76.7041 33.3282 76.7041C33.8882 76.7041 34.1442 76.5281 34.1442 75.9361C34.1282 74.8321 34.1282 73.7281 34.1442 72.6241C34.1442 72.0321 33.8882 71.8561 33.3282 71.8561C28.2402 71.8561 23.1522 71.8561 18.0642 71.8561C17.4402 71.8561 17.2322 72.1121 17.2482 72.7041C17.2802 73.6961 17.2802 74.7041 17.2482 75.6961C17.2162 76.4321 17.4402 76.7201 18.2402 76.7041C20.7362 76.6561 23.2322 76.6881 25.7122 76.6881L25.6962 76.7041Z" fill="#698396"/>
<path d="M62.16 69.536C64.544 70.176 65.056 70.864 65.056 73.136C65.056 74.112 65.056 75.072 65.056 76.048C65.024 77.856 63.936 78.912 62.128 78.912C56.96 78.912 51.792 78.912 46.624 78.912C44.848 78.912 43.792 77.856 43.76 76.064C43.744 74.912 43.76 73.76 43.76 72.608C43.792 70.784 44.704 69.792 46.544 69.696C47.04 69.664 47.152 69.44 47.232 69.056C47.824 66.608 48.48 64.176 49.024 61.728C49.872 57.856 52.192 55.456 55.968 54.368C56.384 54.256 56.784 54.032 57.152 53.776C58.784 52.624 60.4 51.456 62.016 50.288C62.848 49.68 63.776 49.312 64.8 49.376C65.296 49.408 65.472 49.248 65.648 48.816C66.88 45.888 68.096 42.96 69.392 40.08C69.808 39.152 70.352 38.272 70.992 37.472C72.112 36.064 73.536 35.136 75.44 35.616C77.344 36.096 78.4 37.504 78.784 39.312C78.976 40.24 78.96 41.328 78.688 42.24C76.96 47.728 75.12 53.2 73.312 58.672C72.448 61.296 71.008 63.44 68.56 64.896C66.848 65.904 65.248 67.12 63.616 68.272C63.136 68.608 62.736 69.056 62.208 69.568L62.16 69.536ZM49.296 69.584C49.52 69.632 49.616 69.664 49.712 69.664C52.944 69.664 56.176 69.664 59.392 69.664C59.616 69.664 59.936 69.408 60.032 69.184C60.496 68.048 61.232 67.168 62.24 66.48C63.952 65.312 65.616 64.064 67.376 62.992C69.264 61.856 70.4 60.224 71.072 58.192C72.912 52.64 74.736 47.104 76.576 41.552C76.912 40.528 76.688 39.584 76.112 38.704C75.296 37.488 74.128 37.312 73.152 38.368C72.448 39.12 71.824 40.016 71.392 40.944C70.064 43.872 68.848 46.864 67.568 49.824C67.376 50.272 67.568 50.48 67.824 50.768C69.424 52.512 69.504 55.248 67.696 56.704C65.056 58.848 62.208 60.736 59.44 62.736C59.376 62.784 59.28 62.848 59.232 62.832C58.816 62.704 58.224 62.656 58.032 62.368C57.84 62.08 57.968 61.504 58.096 61.088C58.16 60.864 58.512 60.704 58.752 60.544C61.088 58.864 63.44 57.184 65.776 55.488C66.864 54.688 67.088 53.44 66.368 52.464C65.664 51.488 64.4 51.328 63.296 52.08C62.24 52.816 61.2 53.568 60.16 54.336C58.72 55.392 57.296 56.4 55.536 56.912C53.728 57.44 52.288 58.64 51.728 60.496C50.832 63.504 50.096 66.544 49.28 69.616L49.296 69.584ZM54.352 76.704C56.896 76.704 59.44 76.704 61.984 76.704C62.592 76.704 62.848 76.496 62.832 75.888C62.816 74.816 62.816 73.744 62.832 72.656C62.832 72.096 62.624 71.856 62.048 71.856C56.928 71.856 51.808 71.856 46.704 71.856C46.112 71.856 45.92 72.128 45.936 72.672C45.952 73.696 45.968 74.72 45.936 75.744C45.904 76.448 46.144 76.72 46.88 76.704C49.376 76.672 51.872 76.704 54.352 76.704Z" fill="#698396"/>
<path d="M63.456 18.528L42.416 4.51197C41.616 3.98397 40.592 3.98397 39.792 4.51197L18.832 18.528C18.08 19.04 17.84 20.016 18.272 20.816L19.584 23.2C19.824 23.632 20.224 23.936 20.688 24.064C21.152 24.176 21.664 24.096 22.064 23.824L25.712 21.408V41.264C25.552 41.264 23.936 41.264 23.808 41.264C22.768 41.264 22.272 41.776 22.256 42.832C22.256 43.68 22.256 46.016 22.256 46.864C22.256 47.904 22.768 48.416 23.808 48.416C28 48.416 54.16 48.416 58.384 48.416C59.28 48.416 59.824 47.872 59.84 46.96C59.84 46.032 59.84 43.616 59.84 42.688C59.84 41.824 59.296 41.28 58.448 41.264C58.256 41.264 56.576 41.264 56.4 41.264V21.296L60.224 23.824C60.512 24.016 60.848 24.112 61.184 24.112C61.328 24.112 61.472 24.096 61.6 24.064C62.08 23.952 62.48 23.632 62.704 23.2L64.016 20.816C64.448 20.016 64.208 19.04 63.456 18.528ZM58.48 42.608V47.04H23.616V42.608H58.48ZM55.008 20.384V41.232H27.12V20.496L40.896 11.376C41.056 11.28 41.248 11.28 41.408 11.376L55.024 20.384H55.008ZM62.88 20.192L61.568 22.576C61.504 22.688 61.408 22.768 61.28 22.8C61.152 22.832 61.024 22.8 60.912 22.736L42.096 10.288C41.808 10.096 41.472 9.99997 41.136 9.99997C40.8 9.99997 40.464 10.096 40.176 10.288L21.36 22.736C21.248 22.816 21.12 22.832 20.992 22.8C20.864 22.768 20.768 22.688 20.704 22.576L19.392 20.192C19.28 19.984 19.344 19.728 19.536 19.584L40.512 5.58397C40.88 5.34397 41.344 5.34397 41.696 5.58397L62.736 19.6C62.928 19.728 62.992 19.984 62.88 20.192Z" fill="#698396" stroke="#698396" stroke-width="0.75" stroke-miterlimit="10"/>
<path d="M48.2082 23.4241H34.0802C33.6295 23.4241 33.2642 23.7894 33.2642 24.2401V34.7841C33.2642 35.2347 33.6295 35.6001 34.0802 35.6001H48.2082C48.6588 35.6001 49.0242 35.2347 49.0242 34.7841V24.2401C49.0242 23.7894 48.6588 23.4241 48.2082 23.4241Z" stroke="#698396" stroke-width="2" stroke-miterlimit="10"/>
<path d="M33.6323 29.5042H48.6723" stroke="#698396" stroke-width="2" stroke-miterlimit="10"/>
<path d="M41.1523 23.3601V35.8721" stroke="#698396" stroke-width="2" stroke-miterlimit="10"/>
</svg>
