<svg width="80" height="80" viewBox="0 0 80 80" fill="none" xmlns="http://www.w3.org/2000/svg">
<g clip-path="url(#clip0_399_358)">
<path d="M2.84672 13.7996C1.45985 12.5173 0.49635 11.0601 0.160584 9.25318C-0.467153 5.98907 1.0219 2.76867 3.91241 1.12204C6.74453 -0.480878 10.292 -0.116579 12.7591 2.06921C13.562 2.78324 14.3066 3.57012 15.0657 4.32787C19.9562 9.1949 24.8321 14.0765 29.708 18.9581C30.073 19.3224 30.438 19.4827 30.9635 19.4827C35.5912 19.4681 40.2044 19.4827 44.8321 19.4827H45.6058C44.3066 12.4153 46.2628 6.61566 52.292 2.68123C57.7226 -0.859749 63.5328 -0.888893 68.9927 2.63752C75.0657 6.57194 77.0365 12.3862 75.7372 19.4681C76.6277 19.4681 77.5474 19.4681 78.4526 19.4681C79.562 19.4681 80.0146 19.9344 80.0146 21.0419C80.0146 25.6612 80.0146 30.2659 80.0146 34.8852C80.0146 49.2678 80.0146 63.6357 80.0146 78.0182C80.0146 79.6648 79.6788 80 78.0438 80C55.635 80 33.2263 80 10.8175 80C4.45255 80 0.0437956 75.5847 0.0437956 69.2167C0.0145985 53.5956 0.0437956 37.9891 0 22.3679C0 19.1913 0.642336 16.306 2.84672 13.7996ZM77.3577 77.4208V22.0474C76.5693 22.0474 75.854 22.0182 75.1387 22.0619C74.9343 22.0619 74.6569 22.2514 74.5401 22.4408C73.8248 23.5045 73.1533 24.612 72.4234 25.6612C71.0365 27.6576 70.0584 29.8288 69.8394 32.2477C69.6788 33.9818 69.7226 35.7304 69.6788 37.4645C69.635 39.4025 68.4088 40.8889 66.511 41.2969C66.2774 41.3406 66.0584 41.3843 65.8394 41.428C65.5036 44.4444 63.5182 46.4408 60.8321 46.5137C57.9708 46.6011 55.9708 44.7213 55.4307 41.3989C55.3431 41.3843 55.2409 41.3698 55.1387 41.3552C52.9197 41.0055 51.635 39.5191 51.6204 37.2605C51.6204 36.2987 51.6204 35.3224 51.6204 34.3607C51.6204 31.0091 50.5985 27.9927 48.5985 25.2969C47.9854 24.4663 47.4161 23.5774 46.9197 22.6594C46.6569 22.1931 46.3942 22.0328 45.8686 22.0328C41.8102 22.0619 37.7518 22.0328 33.6934 22.0328H32.8029C34.1752 23.4025 35.4307 24.612 36.6277 25.8652C37.0219 26.2732 37.3577 26.7978 37.5328 27.337C38.7591 31.2714 39.927 35.235 41.1095 39.184C41.2993 39.8251 41.4599 40.4372 40.9051 40.9763C40.3796 41.4863 39.781 41.3406 39.1679 41.1512C35.7226 40.1166 32.3066 39.0091 28.8321 38.0765C27.1241 37.6248 25.7664 36.8233 24.5985 35.5118C23.4161 34.1858 22.0876 32.9617 20.6715 31.5483V32.6994C20.6715 44.7942 20.6715 56.8889 20.6715 68.9982C20.6715 69.2896 20.7007 69.5956 20.6423 69.8871C20.5109 70.5428 20.0876 70.9362 19.4015 70.9508C18.7299 70.9508 18.292 70.5719 18.1314 69.9308C18.073 69.6976 18.1022 69.4499 18.073 69.2167C17.781 66.1275 16.2628 63.8543 13.4015 62.6011C10.5255 61.3479 7.78102 61.8142 5.41606 63.8251C3.05109 65.8215 2.13139 68.4299 2.83212 71.4754C3.64964 75.0601 6.77372 77.3916 10.6569 77.3916C32.6423 77.3916 54.6131 77.3916 76.5985 77.3916C76.8321 77.3916 77.0803 77.3916 77.3723 77.3916L77.3577 77.4208ZM18.073 62.8342V62.1202C18.073 51.2933 18.073 40.4517 18.0584 29.6248C18.0584 29.2605 17.8248 28.8087 17.562 28.5464C13.4599 24.408 9.32847 20.2987 5.21168 16.1894C5.05109 16.0291 4.86131 15.8834 4.65693 15.694C3.24088 17.3552 2.61314 19.235 2.61314 21.3479C2.61314 34.9144 2.61314 48.4809 2.61314 62.0619C2.61314 62.2805 2.64234 62.5137 2.65693 62.7905C7.40146 58.0109 14.073 58.6084 18.0876 62.8488L18.073 62.8342ZM61.9416 23.3005C61.9416 22.8488 61.9416 22.4262 61.9416 22.0036C62.0146 19.847 63.7226 18.1858 65.8248 18.2004C67.8978 18.2004 69.6204 19.9053 69.6642 21.9745C69.708 24.1166 68.0146 25.8506 65.8248 25.9089C65.4015 25.9089 64.9781 25.9089 64.5109 25.9089V33.6029H67.0365C67.1387 32.8015 67.2117 32.0291 67.3431 31.2714C67.854 28.1821 69.2847 25.53 71.1387 23.0382C74.3358 18.7104 74.3358 12.7067 71.2555 8.26229C68.146 3.77413 62.5255 1.70491 57.2847 3.14754C48.5255 5.55191 44.8759 15.898 50.2628 23.2131C51.9124 25.4426 53.2117 27.8178 53.7956 30.5428C54.0146 31.5483 54.1168 32.5829 54.2774 33.5883H56.7299V25.9235C56.2628 25.9235 55.8394 25.9235 55.4161 25.9235C53.2701 25.8506 51.6058 24.1311 51.6204 22.0182C51.635 19.949 53.3431 18.2295 55.4307 18.2004C57.5474 18.1712 59.2701 19.8178 59.3577 21.9745C59.3723 22.4117 59.3577 22.8634 59.3577 23.3151H61.9416V23.3005ZM13.5474 6.52823C12.7007 5.68306 11.8978 4.7796 10.9927 3.97814C9.37226 2.52094 6.9635 2.33151 5.08029 3.45355C3.19708 4.57559 2.26277 6.76138 2.71533 8.90346C3.19708 11.133 5.08029 12.2259 6.36496 13.6976C8.80292 11.2641 11.1533 8.91803 13.5328 6.52823H13.5474ZM16.9343 14.9071C21.1679 19.133 25.4453 23.4025 29.6496 27.5993C29.8102 26.1421 30.073 25.9089 31.708 25.9089C32.0876 25.9089 32.4672 25.9089 32.6861 25.9089C28.2044 21.4353 23.7226 16.9617 19.3139 12.5464C18.5547 13.3042 17.6934 14.1494 16.9489 14.8925L16.9343 14.9071ZM27.5036 29.7413C23.2701 25.5155 18.9927 21.2313 14.8029 17.0346C14.0146 17.7923 13.1679 18.6375 12.3796 19.3953C16.8467 23.8543 21.3285 28.3279 25.8394 32.8306C25.8394 32.4809 25.8394 32.0874 25.8394 31.694C25.8394 30.1202 26.1168 29.8288 27.5182 29.7268L27.5036 29.7413ZM54.1898 36.2404C54.1898 36.6193 54.1898 36.9399 54.1898 37.2459C54.2044 38.2951 54.6715 38.776 55.708 38.776C59.0073 38.776 62.3066 38.776 65.6058 38.776C66.5985 38.776 67.0657 38.2805 67.0803 37.275C67.0803 36.9399 67.0803 36.6047 67.0803 36.2259H54.1752L54.1898 36.2404ZM28.4672 32.3497C28.2725 34.2344 29.017 35.4293 30.7007 35.9344C30.9051 35.9927 31.1095 36.1093 31.3139 36.1093C31.5474 36.1093 31.854 36.0656 32 35.9198C33.3139 34.6521 34.5985 33.3552 35.8686 32.0583C36 31.9271 36.0876 31.6211 36.0438 31.4463C35.781 30.4699 35.4745 29.4936 35.1825 28.5319H32.2628C32.2628 29.2605 32.2628 29.9454 32.2628 30.6448C32.2628 31.9417 31.8394 32.3497 30.5109 32.3643C29.8394 32.3643 29.1679 32.3643 28.4526 32.3643L28.4672 32.3497ZM10.2336 17.5009C12.6423 15.082 15.0073 12.7213 17.2409 10.4772C16.6715 9.87978 16.0438 9.20947 15.562 8.69945C13.2263 11.031 10.8613 13.3916 8.52555 15.7231C9.0511 16.2769 9.66423 16.9035 10.2336 17.5009ZM61.8978 25.9526H59.4015V33.5738H61.8978V25.9526ZM58.1168 41.3989C58.1314 42.827 59.2117 43.9198 60.5985 43.9344C62.0146 43.9636 63.1241 42.8852 63.1825 41.3989H58.1314H58.1168ZM56.7591 23.3151C56.7591 22.776 56.7883 22.3388 56.7591 21.9162C56.6861 21.2168 56.1168 20.7359 55.4453 20.7504C54.7737 20.765 54.219 21.3188 54.1898 21.9891C54.1606 22.6594 54.6423 23.2423 55.3431 23.3151C55.781 23.3588 56.2336 23.3151 56.7591 23.3151ZM64.5255 23.3297C65.0365 23.3297 65.4453 23.3588 65.8394 23.3297C66.5985 23.2714 67.1095 22.7322 67.0949 22.0328C67.0949 21.3625 66.5401 20.8087 65.8686 20.7796C65.1679 20.7505 64.5839 21.2605 64.5255 21.9891C64.4964 22.4117 64.5255 22.8342 64.5255 23.3443V23.3297ZM38.073 38.1348C37.708 36.9107 37.3723 35.8178 37.0949 34.8561C36.3212 35.6284 35.5328 36.4153 34.7883 37.1585C35.7664 37.4499 36.8613 37.7705 38.073 38.1348Z" fill="#698396"/>
<path d="M26.3794 63.2569C25.7662 63.2569 25.1969 63.2715 24.6422 63.2569C23.7662 63.2278 23.2699 62.7615 23.2553 61.9163C23.2261 60.226 23.2261 58.5356 23.2553 56.8453C23.2553 56.0438 23.7662 55.5775 24.5838 55.5338C24.6422 55.5338 24.686 55.5338 24.7443 55.5338C26.5254 55.4901 26.54 55.4901 27.1239 53.756C27.1823 53.5957 27.0947 53.3772 27.0363 53.2023C27.0071 53.1149 26.8903 53.042 26.8173 52.9691C25.1239 51.2496 25.1239 51.1185 26.8173 49.4427C27.6933 48.5684 28.5546 47.6941 29.4451 46.8343C30.1896 46.1203 30.8611 46.1203 31.6203 46.8343C32.9341 48.0584 32.9925 48.073 34.5692 47.1986C34.7152 47.1258 34.8319 46.8926 34.8465 46.7178C34.8903 46.2369 34.8465 45.756 34.8611 45.2752C34.9049 44.4591 35.3721 43.9637 36.175 43.9491C37.8684 43.92 39.5619 43.92 41.2553 43.9491C42.0728 43.9491 42.54 44.4591 42.5838 45.2606C42.5984 45.552 42.5838 45.8435 42.5838 46.1495C42.5838 46.4409 42.5838 46.7323 42.5838 47.0675C43.1823 47.3152 43.7516 47.5921 44.3502 47.7961C44.5254 47.8544 44.7881 47.7815 44.9487 47.665C45.2115 47.4901 45.4159 47.2278 45.6349 46.9946C46.613 46.0183 47.1823 46.0183 48.1458 46.9655C49.2115 48.0292 50.2772 49.0784 51.3283 50.1568C51.9998 50.8416 52.0728 51.6285 51.3283 52.1823C50.1604 53.042 50.1166 53.9455 50.8173 55.0675C50.9049 55.1987 50.9487 55.3589 51.0217 55.5338C51.6057 55.5338 52.1604 55.5338 52.7297 55.5338C53.6495 55.5629 54.1458 56.0147 54.1604 56.9036C54.1896 58.5648 54.1896 60.226 54.1604 61.8872C54.1604 62.7323 53.6495 63.2132 52.7881 63.2424C52.2042 63.2569 51.6057 63.2424 51.0363 63.2424C50.7881 63.8252 50.5254 64.3644 50.3502 64.9181C50.2772 65.1367 50.3502 65.4719 50.4816 65.6467C50.7297 65.9965 51.0801 66.2588 51.3721 66.5648C51.9852 67.2205 51.9998 67.92 51.3721 68.5466C50.2334 69.7123 49.0655 70.8781 47.8976 72.0147C47.2699 72.6267 46.4524 72.685 45.9268 71.9855C45.0801 70.8489 44.175 70.7469 43.0363 71.4609C42.9049 71.5484 42.7443 71.5921 42.5546 71.665C42.5546 72.2624 42.5692 72.8453 42.5546 73.4282C42.5254 74.2879 42.0436 74.7834 41.1969 74.7979C39.5327 74.8271 37.8684 74.8271 36.2042 74.7979C35.3429 74.7979 34.8757 74.2879 34.8319 73.4427C34.8319 73.1513 34.8319 72.8599 34.8319 72.5538C34.8319 72.2624 34.8319 71.971 34.8319 71.6941C34.7152 71.6358 34.6568 71.6067 34.5838 71.5629C33.4013 70.9072 32.3648 70.6741 31.4159 72.0438C30.9487 72.7287 30.1312 72.6267 29.5181 72.0438C28.3502 70.9072 27.1823 69.7415 26.0436 68.5757C25.4159 67.9345 25.3429 67.1331 26.0436 66.6085C27.2115 65.7342 27.3137 64.8016 26.5692 63.665C26.4962 63.5484 26.4524 63.4172 26.3794 63.2424V63.2569ZM40.102 46.5721H37.4305C37.4305 47.0529 37.4305 47.4755 37.4305 47.9127C37.4451 48.6996 37.0655 49.1367 36.3356 49.399C35.2845 49.7925 34.248 50.2296 33.2261 50.6813C32.613 50.9582 32.0728 50.9291 31.6057 50.4628C31.2553 50.113 30.9341 49.7196 30.6714 49.4136C29.9414 50.0839 29.3429 50.6522 28.6422 51.2934C29.0217 51.6285 29.3721 51.92 29.7079 52.2405C30.248 52.7506 30.2772 53.3189 29.956 53.9892C29.4889 55.0092 29.0801 56.0438 28.6714 57.093C28.4232 57.7342 27.9998 58.113 27.2991 58.113C26.8319 58.113 26.3502 58.113 25.883 58.113V60.6923C26.394 60.6923 26.8465 60.6923 27.2991 60.6923C28.0144 60.6923 28.4232 61.0566 28.686 61.6977C29.1093 62.7615 29.5327 63.8252 29.9998 64.8744C30.2772 65.4864 30.248 66.0256 29.7662 66.4919C29.4159 66.8416 29.0217 67.1622 28.7297 67.4245C29.4159 68.1385 29.9852 68.736 30.6276 69.4063C30.8757 69.1149 31.1093 68.8234 31.3721 68.5466C32.1458 67.7742 32.5108 67.7597 33.5035 68.2551C34.3648 68.6777 35.2553 69.042 36.175 69.348C37.1531 69.6832 37.4159 69.9892 37.4159 71.0384C37.4159 71.4318 37.4159 71.8252 37.4159 72.2187H39.9998C39.9998 71.7087 39.9998 71.2569 39.9998 70.8052C39.9998 70.0912 40.3648 69.6832 41.0217 69.4209C42.0874 69.0129 43.1531 68.5757 44.2042 68.1094C44.8173 67.8325 45.3575 67.8617 45.8246 68.328C46.175 68.6777 46.4962 69.0711 46.7151 69.3189C47.4743 68.6631 48.0874 68.124 48.7735 67.5411C48.4232 67.2205 48.1312 66.9582 47.8392 66.6668C47.1385 65.9527 47.1239 65.5593 47.5473 64.6558C47.9852 63.7378 48.3794 62.8052 48.7006 61.8435C48.9779 61.042 49.4305 60.634 50.2918 60.6631C50.7151 60.6777 51.1385 60.6631 51.5473 60.6631V58.0839C51.0655 58.0839 50.6422 58.0839 50.2042 58.0839C49.4159 58.0985 48.9925 57.705 48.7151 56.991C48.3356 55.971 47.9122 54.9509 47.4597 53.96C47.1531 53.2897 47.1677 52.7214 47.7078 52.2114C48.0582 51.8908 48.4232 51.5848 48.7006 51.3517C48.0144 50.6085 47.4597 49.9965 46.8319 49.3116C46.54 49.6467 46.3064 49.9527 46.0436 50.215C45.2699 50.9874 44.8757 51.0311 43.9122 50.5065C43.3867 50.2296 42.8757 49.8653 42.321 49.7633C40.5546 49.4136 39.4889 48.5976 40.0874 46.5575L40.102 46.5721Z" fill="#698396"/>
<path d="M52.9487 72.2331V69.683C53.2699 69.683 53.5618 69.683 53.8538 69.683C58.102 69.683 62.3501 69.7121 66.5837 69.683C69.1677 69.6539 71.445 67.8324 72.0582 65.3697C72.7151 62.7905 71.6056 60.0801 69.2407 58.8706C68.4377 58.448 67.4742 58.1857 66.5545 58.142C62.2334 57.9234 59.3428 54.9945 59.3428 50.6958C59.3428 50.1857 59.3428 49.6903 59.3428 49.1511H61.9268C61.9268 49.632 61.9268 50.142 61.9268 50.6375C61.9268 53.6393 63.6932 55.4608 66.6713 55.5628C70.8757 55.7085 74.175 58.7395 74.7735 62.9945C75.299 66.7832 72.8173 70.6447 69.0363 71.8542C68.2334 72.1165 67.3574 72.2622 66.5107 72.2768C62.1312 72.3205 57.7516 72.2914 53.372 72.2914C53.2407 72.2914 53.1093 72.2768 52.9341 72.2622L52.9487 72.2331Z" fill="#698396"/>
<path d="M60.6714 7.83977V5.39168C65.8393 5.05653 71.1093 9.89441 70.8904 15.5629H68.4378C68.0582 10.6522 64.5838 8.0292 60.6714 7.83977Z" fill="#698396"/>
<path d="M38.7298 51.6722C43.0363 51.6867 46.4816 55.184 46.4524 59.4827C46.4232 63.6795 42.9196 67.133 38.7006 67.1184C34.394 67.1184 30.9342 63.6066 30.978 59.3079C31.0071 55.0966 34.5108 51.6576 38.7298 51.6722ZM43.8685 59.3662C43.8685 56.5246 41.5327 54.2223 38.6714 54.2368C35.8539 54.2368 33.5619 56.5538 33.5473 59.3662C33.5473 62.2223 35.8539 64.5392 38.7006 64.5392C41.5473 64.5392 43.8685 62.2223 43.8685 59.3662Z" fill="#698396"/>
</g>
<defs>
<clipPath id="clip0_399_358">
<rect width="80" height="80" fill="white"/>
</clipPath>
</defs>
</svg>
