<svg width="40" height="40" viewBox="0 0 40 40" fill="none" xmlns="http://www.w3.org/2000/svg">
<g clip-path="url(#clip0_30_554)">
<path d="M15.9817 21.0278H13.25V15.9365H15.9817C15.9817 15.696 15.9817 15.4955 15.9817 15.3151C16.0205 13.9722 15.9236 12.5891 16.1367 11.2661C16.6017 8.27951 18.4035 6.71604 21.4452 6.53563C22.9564 6.45546 24.4676 6.53563 25.9788 6.53563C26.0369 6.53563 26.095 6.57572 26.1919 6.59577C26.1919 8.09911 26.1919 9.62249 26.1919 11.1258C26.1919 11.2261 26.1919 11.3463 26.1531 11.5067C25.2232 11.5067 24.3126 11.5067 23.402 11.5067C22.2008 11.5067 21.8133 11.8875 21.8133 13.1303C21.8133 14.0323 21.8133 14.9543 21.8133 15.8964H26.25C26.0756 17.6203 25.9206 19.284 25.7463 21.0078H21.8133V35.5H15.9817V21.0278Z" fill="#BF9771"/>
</g>
<defs>
<clipPath id="clip0_30_554">
<rect width="40" height="40" rx="20" fill="white"/>
</clipPath>
</defs>
</svg>
