<svg width="40" height="40" viewBox="0 0 40 40" fill="none" xmlns="http://www.w3.org/2000/svg">
<g clip-path="url(#clip0_30_557)">
<path d="M34.2047 20.0027C34.2047 22.2953 34.3183 24.588 34.1858 26.8806C33.9964 30.0253 32.7848 32.5817 30.0207 34.0628C28.6766 34.7932 27.2188 35.0772 25.7421 35.0975C21.9179 35.1178 18.0936 35.1178 14.2504 35.0975C12.8495 35.0975 11.5053 34.8134 10.2179 34.2048C7.62426 32.9469 6.29903 30.6543 5.88252 27.7327C5.78786 27.0429 5.75 26.3125 5.75 25.6227C5.75 21.7881 5.75 17.9536 5.75 14.0987C5.75 12.78 5.93932 11.4612 6.37475 10.2236C7.45387 7.18031 9.61211 5.5978 12.5087 5.07029C13.266 4.92827 14.0422 4.8877 14.7995 4.8877C18.4155 4.8877 22.0315 4.8877 25.6285 4.8877C26.897 4.8877 28.1465 5.11087 29.3203 5.5978C32.179 6.79483 33.6367 9.14831 34.0911 12.3133C34.1858 13.0234 34.2236 13.7538 34.2236 14.4842C34.2236 16.3305 34.2236 18.1768 34.2236 20.023C34.2236 20.023 34.2047 20.023 34.1858 20.023L34.2047 20.0027ZM20.0057 7.72811V7.68753C19.646 7.68753 19.2674 7.68753 18.9077 7.68753C17.0334 7.72811 15.1592 7.68753 13.2849 7.84984C11.1267 8.03243 9.53639 9.18889 8.81697 11.4409C8.55193 12.293 8.40047 13.206 8.40047 14.0987C8.36261 17.913 8.38154 21.707 8.40047 25.5212C8.40047 26.0285 8.43833 26.5357 8.49513 27.0429C8.79804 29.9645 10.6344 31.9325 13.3417 32.1353C15.1213 32.2774 16.9009 32.2774 18.6805 32.2774C21.3688 32.2774 24.0572 32.2774 26.7455 32.1151C28.9037 31.9933 30.513 30.776 31.2134 28.524C31.4974 27.6516 31.6299 26.698 31.6299 25.7647C31.6678 21.9707 31.6489 18.1768 31.6299 14.3828C31.6299 13.835 31.5921 13.2872 31.5353 12.7597C31.2513 10.2642 29.7746 8.49907 27.5217 7.95128C26.9159 7.80926 26.2722 7.7281 25.6475 7.70782C23.7732 7.68753 21.8989 7.70782 20.0247 7.70782L20.0057 7.72811Z" fill="#BF9771"/>
<path d="M19.9808 28.2872C15.7203 28.2478 12.3618 24.742 12.4002 20.4089C12.4386 16.0562 15.8739 12.6292 20.1152 12.6883C24.2989 12.7473 27.619 16.2532 27.5998 20.5665C27.5614 24.8601 24.1454 28.3266 19.9616 28.2872H19.9808ZM20.0768 15.4456C17.3708 15.3866 15.1638 17.5925 15.1062 20.4089C15.0486 23.1663 17.2173 25.451 19.9424 25.5101C22.6484 25.5692 24.8554 23.3633 24.913 20.5468C24.9706 17.7697 22.8212 15.5047 20.0768 15.4456Z" fill="#BF9771"/>
<path d="M27.1612 12.633C26.3676 12.633 25.7364 12.0221 25.7003 11.2075C25.6823 10.393 26.3135 9.70801 27.1251 9.70801C27.9187 9.70801 28.55 10.356 28.55 11.152C28.55 11.948 27.9367 12.6145 27.1432 12.633H27.1612Z" fill="#BF9771"/>
</g>
<defs>
<clipPath id="clip0_30_557">
<rect width="40" height="40" rx="20" fill="white"/>
</clipPath>
</defs>
</svg>
