<svg width="40" height="40" viewBox="0 0 40 40" fill="none" xmlns="http://www.w3.org/2000/svg">
<g clip-path="url(#clip0_30_562)">
<path d="M6.25 7.50574C6.25 6.3983 7.13765 5.5 8.23267 5.5H31.2673C32.3623 5.5 33.25 6.3983 33.25 7.50575V31.4943C33.25 32.6021 32.3623 33.5 31.2673 33.5L8.23267 33.5C7.13765 33.5 6.25 32.6021 6.25 31.4943V7.50574ZM14.592 28.9389V16.2953H10.5396V28.9389H14.592ZM12.5657 14.5691C13.9789 14.5691 14.8585 13.5982 14.8585 12.3849C14.8321 11.1442 13.9789 10.2003 12.5925 10.2003C11.2063 10.2003 10.3 11.1442 10.3 12.3849C10.3 13.5982 11.1794 14.5691 12.5393 14.5691H12.5657ZM20.8492 28.9389V21.8782C20.8492 21.5003 20.8756 21.1228 20.9826 20.8527C21.2755 20.0977 21.9423 19.3157 23.0618 19.3157C24.5282 19.3157 25.1147 20.4752 25.1147 22.1749V28.9389H29.1668V21.6893C29.1668 17.8057 27.1676 15.9986 24.5014 15.9986C22.3517 15.9986 21.3879 17.2239 20.8493 18.0854V18.129H20.8223C20.8312 18.1146 20.8402 18.1 20.8493 18.0854V16.2953H16.797C16.8502 17.4817 16.797 28.9389 16.797 28.9389H20.8492Z" fill="#BF9771"/>
</g>
<defs>
<clipPath id="clip0_30_562">
<rect width="40" height="40" rx="20" fill="white"/>
</clipPath>
</defs>
</svg>
