<?xml version="1.0" encoding="UTF-8"?>
<svg version="1.1" xmlns="http://www.w3.org/2000/svg" width="314" height="80">
<path d="M0 0 C0.77794922 -0.00322266 1.55589844 -0.00644531 2.35742188 -0.00976562 C8.58129743 0.04733415 16.13807368 0.53118846 21.3125 4.3125 C22.4375 6.6875 22.4375 6.6875 23.3125 9.3125 C23.9003125 10.2096875 23.9003125 10.2096875 24.5 11.125 C25.80063726 14.6267157 24.92070728 17.66325632 24.3125 21.3125 C20.61351827 22.26366673 17.96882001 22.500804 14.3125 21.3125 C11.625 19.3125 11.625 19.3125 9.3125 17.3125 C6.87862247 16.09556124 4.89411154 15.99290104 2.1875 15.75 C1.27742188 15.66621094 0.36734375 15.58242188 -0.5703125 15.49609375 C-1.61832031 15.40521484 -1.61832031 15.40521484 -2.6875 15.3125 C-5.02141203 18.09364056 -5.02141203 18.09364056 -4.3125 21 C-4.10625 21.763125 -3.9 22.52625 -3.6875 23.3125 C-3.02878906 23.40917969 -2.37007812 23.50585938 -1.69140625 23.60546875 C2.20921837 24.52356115 5.71134755 26.02320145 9.375 27.625 C10.08205078 27.92083984 10.78910156 28.21667969 11.51757812 28.52148438 C19.31662987 31.91205804 24.04475037 37.43827749 27.3125 45.3125 C28.58078325 53.21560832 27.70462106 59.64859219 23.3125 66.3125 C22.69375 67.446875 22.075 68.58125 21.4375 69.75 C19.3125 72.3125 19.3125 72.3125 16.5 73.0625 C15.448125 73.145 14.39625 73.2275 13.3125 73.3125 C12.19875 73.663125 11.085 74.01375 9.9375 74.375 C5.94474625 75.40760873 2.38756817 75.53848768 -1.6875 75.3125 C-2.96947266 75.26802734 -2.96947266 75.26802734 -4.27734375 75.22265625 C-11.03304724 74.8159252 -11.03304724 74.8159252 -14.125 72.4375 C-14.8984375 71.385625 -14.8984375 71.385625 -15.6875 70.3125 C-16.5228125 69.5390625 -16.5228125 69.5390625 -17.375 68.75 C-18.6875 67.3125 -18.6875 67.3125 -19.6875 64.3125 C-20.038125 63.714375 -20.38875 63.11625 -20.75 62.5 C-22.41032337 58.62591213 -22.05142613 55.35878763 -20.6875 51.4375 C-20.3575 50.73625 -20.0275 50.035 -19.6875 49.3125 C-16.7175 49.3125 -13.7475 49.3125 -10.6875 49.3125 C-10.0275 50.6325 -9.3675 51.9525 -8.6875 53.3125 C-8.0275 53.3125 -7.3675 53.3125 -6.6875 53.3125 C-6.3575 54.9625 -6.0275 56.6125 -5.6875 58.3125 C-2.37679162 59.31359515 0.61334769 59.41606134 4.0625 59.375 C5.53976563 59.36146484 5.53976563 59.36146484 7.046875 59.34765625 C8.16835937 59.33025391 8.16835937 59.33025391 9.3125 59.3125 C11.04285844 55.26254208 11.04285844 55.26254208 10.75 51 C8.80174136 48.71291377 7.23024148 48.73948656 4.3125 48.3125 C3.3225 47.6525 2.3325 46.9925 1.3125 46.3125 C-0.9953491 45.15857545 -3.15980331 44.77812834 -5.6875 44.3125 C-5.6875 43.6525 -5.6875 42.9925 -5.6875 42.3125 C-6.80125 42.065 -7.915 41.8175 -9.0625 41.5625 C-12.6875 40.3125 -12.6875 40.3125 -13.875 38.5 C-14.143125 37.778125 -14.41125 37.05625 -14.6875 36.3125 C-15.3475 35.57 -16.0075 34.8275 -16.6875 34.0625 C-20.65147702 28.61203159 -21.17944089 22.91173059 -20.23046875 16.4140625 C-19.39019629 13.16178492 -17.76130819 10.91957316 -15.6875 8.3125 C-15.006875 7.425625 -14.32625 6.53875 -13.625 5.625 C-9.26292795 0.41865594 -6.84308445 -0.13830001 0 0 Z M-1.6875 13.3125 C-1.6875 13.6425 -1.6875 13.9725 -1.6875 14.3125 C0.6225 14.3125 2.9325 14.3125 5.3125 14.3125 C5.3125 13.9825 5.3125 13.6525 5.3125 13.3125 C3.0025 13.3125 0.6925 13.3125 -1.6875 13.3125 Z M0.3125 61.3125 C0.3125 61.6425 0.3125 61.9725 0.3125 62.3125 C1.9625 62.3125 3.6125 62.3125 5.3125 62.3125 C5.3125 61.9825 5.3125 61.6525 5.3125 61.3125 C3.6625 61.3125 2.0125 61.3125 0.3125 61.3125 Z " fill="#282323" transform="translate(72.6875,2.6875)"/>
<path d="M0 0 C0.91716797 -0.01224609 1.83433594 -0.02449219 2.77929688 -0.03710938 C10.78368555 -0.05412792 18.49833403 1.10296777 25.9375 4.1875 C26.5975 5.1775 27.2575 6.1675 27.9375 7.1875 C29.26270503 7.87018138 30.59562182 8.5382041 31.9375 9.1875 C32.4325 10.1775 32.4325 10.1775 32.9375 11.1875 C33.9275 11.6825 33.9275 11.6825 34.9375 12.1875 C35.5 14 35.5 14 35.9375 16.1875 C36.123125 16.93 36.30875 17.6725 36.5 18.4375 C36.7165625 19.30375 36.7165625 19.30375 36.9375 20.1875 C35.2875 20.8475 33.6375 21.5075 31.9375 22.1875 C31.9375 22.8475 31.9375 23.5075 31.9375 24.1875 C30.0503125 24.001875 30.0503125 24.001875 28.125 23.8125 C27.41730469 23.74289063 26.70960938 23.67328125 25.98046875 23.6015625 C23.9375 23.1875 23.9375 23.1875 20.9375 21.1875 C20.07125 20.878125 19.205 20.56875 18.3125 20.25 C17.52875 19.899375 16.745 19.54875 15.9375 19.1875 C15.4425 17.7025 15.4425 17.7025 14.9375 16.1875 C12.9575 16.1875 10.9775 16.1875 8.9375 16.1875 C8.4425 15.1975 8.4425 15.1975 7.9375 14.1875 C5.2975 14.1875 2.6575 14.1875 -0.0625 14.1875 C-0.0625 14.8475 -0.0625 15.5075 -0.0625 16.1875 C-0.72636719 16.34605469 -1.39023438 16.50460938 -2.07421875 16.66796875 C-9.05286298 18.51196087 -12.66976354 20.68385019 -16.8125 26.75 C-19.7803928 32.53739096 -19.89208677 39.13096128 -18.6015625 45.44140625 C-17.30527318 49.45990315 -15.54720102 52.55223536 -12.08984375 55.15625 C-7.71850391 57.37982171 -2.84252849 58.23613511 1.9375 59.1875 C1.9375 59.8475 1.9375 60.5075 1.9375 61.1875 C3.9175 60.6925 3.9175 60.6925 5.9375 60.1875 C5.9375 59.8575 5.9375 59.5275 5.9375 59.1875 C6.60136719 59.01734375 7.26523438 58.8471875 7.94921875 58.671875 C13.14147564 57.24684683 16.92756556 55.94681354 20.9375 52.1875 C21.5975 51.8575 22.2575 51.5275 22.9375 51.1875 C23.58963292 49.16286745 23.58963292 49.16286745 23.9375 47.1875 C25.54213449 47.49758884 27.14619231 47.81066287 28.75 48.125 C29.64332031 48.29902344 30.53664063 48.47304688 31.45703125 48.65234375 C33.9375 49.1875 33.9375 49.1875 36.9375 50.1875 C37.2675 51.1775 37.5975 52.1675 37.9375 53.1875 C34.02782082 60.90397206 27.02108226 70.70715845 18.9375 74.1875 C15.93881733 74.70699672 12.91321687 74.7963524 9.875 74.9375 C9.02607178 74.97987793 8.17714355 75.02225586 7.30249023 75.06591797 C0.94945598 75.30944994 -4.90020591 74.8383164 -11.0625 73.1875 C-12.19365234 72.90519531 -12.19365234 72.90519531 -13.34765625 72.6171875 C-13.91355469 72.47539063 -14.47945312 72.33359375 -15.0625 72.1875 C-15.0625 71.5275 -15.0625 70.8675 -15.0625 70.1875 C-16.485625 69.81625 -16.485625 69.81625 -17.9375 69.4375 C-21.0625 68.1875 -21.0625 68.1875 -22.1875 66.25 C-22.47625 65.569375 -22.765 64.88875 -23.0625 64.1875 C-24.39098691 63.18107052 -25.72400329 62.18057821 -27.0625 61.1875 C-27.5575 59.7025 -27.5575 59.7025 -28.0625 58.1875 C-28.701875 57.07375 -29.34125 55.96 -30 54.8125 C-34.49946681 45.83004795 -35.05060157 35.70410785 -32.0625 26.1875 C-29.6440034 20.10049732 -26.36331852 14.89574598 -22.296875 9.78125 C-20.98455214 8.19336753 -20.98455214 8.19336753 -20.0625 6.1875 C-19.0725 5.8575 -18.0825 5.5275 -17.0625 5.1875 C-15.3799387 3.87428142 -13.71252828 2.54136936 -12.0625 1.1875 C-8.39298615 -0.64725693 -4.03874849 0.00275682 0 0 Z " fill="#AA3E3F" transform="translate(137.0625,2.8125)"/>
<path d="M0 0 C14.52 0 29.04 0 44 0 C44.9702889 2.91086669 45.16467847 4.90223685 45.1875 7.9375 C45.20167969 8.79214844 45.21585938 9.64679687 45.23046875 10.52734375 C45 13 45 13 43 17 C39.37 17 35.74 17 32 17 C32 34.16 32 51.32 32 69 C30.515 69.495 30.515 69.495 29 70 C28.26676204 72.01508358 28.26676204 72.01508358 28 74 C20.75332651 74.4912999 20.75332651 74.4912999 17.125 72.125 C15.75 70.75 14.375 69.375 13 68 C12.67 68 12.34 68 12 68 C12 51.17 12 34.34 12 17 C8.04 17 4.08 17 0 17 C-1.02835363 13.91493912 -1.13368434 11.7305728 -1.125 8.5 C-1.12757812 7.5409375 -1.13015625 6.581875 -1.1328125 5.59375 C-1 3 -1 3 0 0 Z M1 15 C1 15.33 1 15.66 1 16 C4.63 16 8.26 16 12 16 C12 15.67 12 15.34 12 15 C8.37 15 4.74 15 1 15 Z " fill="#302C2C" transform="translate(2,4)"/>
<path d="M0 0 C1.11826172 0.00966797 2.23652344 0.01933594 3.38867188 0.02929688 C5.13954102 0.06700195 5.13954102 0.06700195 6.92578125 0.10546875 C8.10462891 0.11900391 9.28347656 0.13253906 10.49804688 0.14648438 C13.41191536 0.18187549 16.3248707 0.23125066 19.23828125 0.29296875 C20.21217755 3.21465764 20.43433948 5.30326349 20.48828125 8.35546875 C20.5140625 9.23332031 20.53984375 10.11117187 20.56640625 11.015625 C20.458125 11.76714844 20.34984375 12.51867188 20.23828125 13.29296875 C16.65405829 15.68245072 14.86595529 15.59530043 10.6015625 15.70703125 C9.30283203 15.74570312 8.00410156 15.784375 6.66601562 15.82421875 C5.29427552 15.85567392 3.92253064 15.88692126 2.55078125 15.91796875 C1.1672934 15.95616072 -0.21617098 15.99521317 -1.59960938 16.03515625 C-4.98684325 16.12957392 -8.37406944 16.21514993 -11.76171875 16.29296875 C-11.95186893 7.42834861 -11.95186893 7.42834861 -8.76171875 3.29296875 C-8.35074951 2.75889404 -7.93978027 2.22481934 -7.51635742 1.67456055 C-5.00066549 -0.30627995 -3.16951344 -0.0482667 0 0 Z M-5.76171875 1.29296875 C-5.76171875 1.62296875 -5.76171875 1.95296875 -5.76171875 2.29296875 C2.15828125 2.29296875 10.07828125 2.29296875 18.23828125 2.29296875 C18.23828125 1.96296875 18.23828125 1.63296875 18.23828125 1.29296875 C10.31828125 1.29296875 2.39828125 1.29296875 -5.76171875 1.29296875 Z " fill="#B25152" transform="translate(155.76171875,30.70703125)"/>
<path d="M0 0 C1.32 0.33 2.64 0.66 4 1 C4.33 2.32 4.66 3.64 5 5 C5.33 4.01 5.66 3.02 6 2 C7.32 2 8.64 2 10 2 C10 6.95 10 11.9 10 17 C8.35 16.67 6.7 16.34 5 16 C4.67 14.68 4.34 13.36 4 12 C3.67 12.99 3.34 13.98 3 15 C0.10441559 16.4477922 -1.74188938 17 -5 17 C-5.33 16.34 -5.66 15.68 -6 15 C-8.31 15.33 -10.62 15.66 -13 16 C-12.46148032 10.72250715 -11.22656164 6.74354436 -9 2 C-7.68 2 -6.36 2 -5 2 C-4.01 4.64 -3.02 7.28 -2 10 C-1.855625 8.72125 -1.71125 7.4425 -1.5625 6.125 C-1.29357254 3.74307106 -1.07773654 2.15547309 0 0 Z M-8 7 C-7 9 -7 9 -7 9 Z " fill="#575757" transform="translate(281,30)"/>
<path d="M0 0 C4.03112186 0.55329124 8.01498629 1.179556 12 2 C12.33 2 12.66 2 13 2 C13 7.61 13 13.22 13 19 C1.5 19 1.5 19 -4 18 C-4 13 -4 8 -4 3 C-2.68 2.34 -1.36 1.68 0 1 C0 0.67 0 0.34 0 0 Z M2 5 C2.33 5.66 2.66 6.32 3 7 C3.33 6.34 3.66 5.68 4 5 C3.34 5 2.68 5 2 5 Z M7 7 C8 9 8 9 8 9 Z " fill="#D19797" transform="translate(238,50)"/>
<path d="M0 0 C5.28 0 10.56 0 16 0 C16.25 8.625 16.25 8.625 14 12 C14.99 12.33 15.98 12.66 17 13 C16.67 14.98 16.34 16.96 16 19 C14.66666667 18.33333333 13.33333333 17.66666667 12 17 C10.63875 17.2475 10.63875 17.2475 9.25 17.5 C6 18 6 18 0 17 C0 11.39 0 5.78 0 0 Z M1 6 C2 8 2 8 2 8 Z M5 10 C5.33 11.32 5.66 12.64 6 14 C6.33 12.68 6.66 11.36 7 10 C6.34 10 5.68 10 5 10 Z M1 11 C2 14 2 14 2 14 Z M7 11 C8 13 8 13 8 13 Z " fill="#C78182" transform="translate(252,52)"/>
<path d="M0 0 C3 1 3 1 4 3 C4.99 3 5.98 3 7 3 C6.82680717 9.9434578 5.38938218 13.62300683 1 19 C0.67 19.66 0.34 20.32 0 21 C-2.97 20.01 -5.94 19.02 -9 18 C-9.2165625 16.1746875 -9.2165625 16.1746875 -9.4375 14.3125 C-9.73610946 11.86736454 -10.10081142 9.53626747 -10.625 7.125 C-11 5 -11 5 -10 3 C-7.67711188 2.60689586 -5.38154824 2.49250305 -3.03125 2.34375 C-2.02578125 2.17359375 -2.02578125 2.17359375 -1 2 C-0.67 1.34 -0.34 0.68 0 0 Z M-2 5 C-1 7 -1 7 -1 7 Z M-5 6 C-5.33 6.66 -5.66 7.32 -6 8 C-5.34 8 -4.68 8 -4 8 C-4.33 7.34 -4.66 6.68 -5 6 Z M2 8 C3 10 3 10 3 10 Z M-6 11 C-5 14 -5 14 -5 14 Z M-2 12 C-1 15 -1 15 -1 15 Z M0 12 C1 14 1 14 1 14 Z " fill="#D9A8A8" transform="translate(226,50)"/>
<path d="M0 0 C4.95 0 9.9 0 15 0 C15.33 1.32 15.66 2.64 16 4 C14.35 3.67 12.7 3.34 11 3 C11 3.66 11 4.32 11 5 C12.65 5 14.3 5 16 5 C17.42857143 13.42857143 17.42857143 13.42857143 15 18 C14.154375 17.484375 13.30875 16.96875 12.4375 16.4375 C8.38027193 14.74084099 6.22965901 15.02392484 2 16 C1.34 16.33 0.68 16.66 0 17 C0 13.04 0 9.08 0 5 C1.32 5 2.64 5 4 5 C4 4.34 4 3.68 4 3 C2.68 3.33 1.36 3.66 0 4 C0 2.68 0 1.36 0 0 Z M5 3 C6 5 6 5 6 5 Z M9 3 C10 5 10 5 10 5 Z M4 8 C5 10 5 10 5 10 Z " fill="#BE6C6D" transform="translate(199,53)"/>
<path d="M0 0 C1.32 0.33 2.64 0.66 4 1 C5.265625 3.36328125 5.265625 3.36328125 6.25 6.3125 C6.58515625 7.27800781 6.9203125 8.24351563 7.265625 9.23828125 C8 12 8 12 8 16 C7.236875 15.773125 6.47375 15.54625 5.6875 15.3125 C4.3571875 15.1578125 4.3571875 15.1578125 3 15 C1.1645201 16.33378575 1.1645201 16.33378575 0 18 C-0.99 17.67 -1.98 17.34 -3 17 C-4.65 16.67 -6.3 16.34 -8 16 C-8 11.38 -8 6.76 -8 2 C-6.68 2 -5.36 2 -4 2 C-3.67 4.97 -3.34 7.94 -3 11 C-2.01 7.37 -1.02 3.74 0 0 Z M2 8 C3 10 3 10 3 10 Z " fill="#4E4E4E" transform="translate(296,9)"/>
<path d="M0 0 C2.64 0 5.28 0 8 0 C10.45397487 5.06132317 10.82225868 9.58461513 9 14.9375 C8.505 15.9584375 8.505 15.9584375 8 17 C0.49230769 17.36923077 0.49230769 17.36923077 -2 15.5 C-2.33 15.005 -2.66 14.51 -3 14 C-2.67 13.34 -2.34 12.68 -2 12 C-2.020625 10.906875 -2.04125 9.81375 -2.0625 8.6875 C-2.00289778 5.17096881 -1.51298225 3.12052589 0 0 Z M2 5 C2 7.31 2 9.62 2 12 C2.66 11.67 3.32 11.34 4 11 C3.67 9.02 3.34 7.04 3 5 C2.67 5 2.34 5 2 5 Z M5 5 C5 7.31 5 9.62 5 12 C5.33 12 5.66 12 6 12 C6 9.69 6 7.38 6 5 C5.67 5 5.34 5 5 5 Z " fill="#747474" transform="translate(213,30)"/>
<path d="M0 0 C2.97 0 5.94 0 9 0 C10.97745122 4.76914707 11.11867051 7.96598273 10 13 C8.9375 15.4375 8.9375 15.4375 8 17 C5.69 17 3.38 17 1 17 C-1.45064675 12.0987065 -2.45995228 9.47482104 -1 4 C-0.67 2.68 -0.34 1.36 0 0 Z M4 4 C3.34 4.66 2.68 5.32 2 6 C2.32198966 9.09926819 2.32198966 9.09926819 3 12 C5.35953094 9.64046906 5.49141413 8.22104383 6 5 C5.34 4.67 4.68 4.34 4 4 Z M6 6 C6 7.65 6 9.3 6 11 C6.33 11 6.66 11 7 11 C7 9.35 7 7.7 7 6 C6.67 6 6.34 6 6 6 Z M2 15 C2 15.33 2 15.66 2 16 C3.65 16 5.3 16 7 16 C7 15.67 7 15.34 7 15 C5.35 15 3.7 15 2 15 Z " fill="#555555" transform="translate(211,10)"/>
<path d="M0 0 C1.01924246 6.21369499 1.62926746 10.48351346 -2 16 C-7.38732394 16.35915493 -7.38732394 16.35915493 -9.8125 14.9375 C-11.64085164 11.95439996 -11.88025472 9.47261317 -12 6 C-10.59967215 2.2932498 -9.61656693 1.28259318 -6 -0.375 C-3 -1 -3 -1 0 0 Z M-6 3 C-6.66 3.66 -7.32 4.32 -8 5 C-7.67801034 8.09926819 -7.67801034 8.09926819 -7 11 C-4.64046906 8.64046906 -4.50858587 7.22104383 -4 4 C-4.66 3.67 -5.32 3.34 -6 3 Z M-4 5 C-4 6.65 -4 8.3 -4 10 C-3.67 10 -3.34 10 -3 10 C-3 8.35 -3 6.7 -3 5 C-3.33 5 -3.66 5 -4 5 Z M-8 14 C-8 14.33 -8 14.66 -8 15 C-6.35 15 -4.7 15 -3 15 C-3 14.67 -3 14.34 -3 14 C-4.65 14 -6.3 14 -8 14 Z " fill="#818181" transform="translate(275,11)"/>
<path d="M0 0 C0.95261487 4.76307437 1.08333357 9.1666528 1 14 C-4.41538462 17.07692308 -4.41538462 17.07692308 -7.375 16.6875 C-7.91125 16.460625 -8.4475 16.23375 -9 16 C-9.93619813 12.84493858 -10.1057123 10.03413498 -10.0625 6.75 C-10.05347656 5.85796875 -10.04445312 4.9659375 -10.03515625 4.046875 C-10.02355469 3.37140625 -10.01195312 2.6959375 -10 2 C-9.236875 1.855625 -8.47375 1.71125 -7.6875 1.5625 C-0.22222222 0 -0.22222222 0 0 0 Z M-6 5 C-6 7.31 -6 9.62 -6 12 C-5.67 12 -5.34 12 -5 12 C-4.67 9.69 -4.34 7.38 -4 5 C-4.66 5 -5.32 5 -6 5 Z M-3 5 C-3.33 5.66 -3.66 6.32 -4 7 C-2.68 6.67 -1.36 6.34 0 6 C-0.99 5.67 -1.98 5.34 -3 5 Z " fill="#D7A5A5" transform="translate(209,30)"/>
<path d="M0 0 C2.64 0 5.28 0 8 0 C9.14857926 3.44573777 9.03468706 6.15624655 8.9375 9.74609375 C8.99950143 11.98202025 9.3758017 13.85919489 10 16 C8.68 16.33 7.36 16.66 6 17 C5.34 15.35 4.68 13.7 4 12 C3.67 12.99 3.34 13.98 3 15 C1.68 15 0.36 15 -1 15 C-1.02693575 12.87506859 -1.04636628 10.75004088 -1.0625 8.625 C-1.07410156 7.44164062 -1.08570313 6.25828125 -1.09765625 5.0390625 C-1 2 -1 2 0 0 Z M3 5 C4 8 4 8 4 8 Z M5 5 C6 7 6 7 6 7 Z " fill="#4F4F4F" transform="translate(246,30)"/>
<path d="M0 0 C6.875 1.875 6.875 1.875 8 3 C8.07258946 5.18639453 8.08373783 7.37500389 8.0625 9.5625 C8.05347656 10.76003906 8.04445313 11.95757812 8.03515625 13.19140625 C8.02355469 14.11824219 8.01195312 15.04507813 8 16 C5.07175348 16.97608217 3.04386724 17.08226668 0 17 C-2.91641899 12.21707285 -3.31036397 9.44305034 -2 4 C-0.9375 1.5625 -0.9375 1.5625 0 0 Z M1 6 C1 7.65 1 9.3 1 11 C1.33 11 1.66 11 2 11 C2 9.35 2 7.7 2 6 C1.67 6 1.34 6 1 6 Z M3 7 C3 7.99 3 8.98 3 10 C4.32 9.34 5.64 8.68 7 8 C5.68 7.67 4.36 7.34 3 7 Z " fill="#6B6B6B" transform="translate(295,30)"/>
<path d="M0 0 C2.31 0 4.62 0 7 0 C7.33 2.31 7.66 4.62 8 7 C7.01 7.495 7.01 7.495 6 8 C5.34 7.67 4.68 7.34 4 7 C4 7.99 4 8.98 4 10 C5.32 9.67 6.64 9.34 8 9 C8.33 11.31 8.66 13.62 9 16 C5.33694766 16.74926071 2.57644848 17.2380014 -1 16 C-2.77641602 10.44869995 -2.53883587 5.23634898 0 0 Z M2 5 C2 7.31 2 9.62 2 12 C2.33 12 2.66 12 3 12 C3 9.69 3 7.38 3 5 C2.67 5 2.34 5 2 5 Z " fill="#7D7D7D" transform="translate(305,52)"/>
<path d="M0 0 C1.32 0 2.64 0 4 0 C4.66 1.98 5.32 3.96 6 6 C6.33 4.68 6.66 3.36 7 2 C8.32 2 9.64 2 11 2 C11.98936713 6.94683566 12.29458238 10.41083524 10 15 C7.875 15.875 7.875 15.875 6 16 C5.34 14.35 4.68 12.7 4 11 C3.67 12.32 3.34 13.64 3 15 C2.01 15 1.02 15 0 15 C0 10.05 0 5.1 0 0 Z " fill="#424242" transform="translate(257,30)"/>
<path d="M0 0 C2.64 0 5.28 0 8 0 C8.02684679 2.64590014 8.04676357 5.29153096 8.0625 7.9375 C8.07087891 8.69224609 8.07925781 9.44699219 8.08789062 10.22460938 C8.09652441 12.14994313 8.05224333 14.07535581 8 16 C7 17 7 17 4.125 17.25 C1 17 1 17 -0.67578125 15.79296875 C-2.41768464 13.43446239 -2.36934531 11.97035627 -2.3125 9.0625 C-2.30863281 8.20785156 -2.30476563 7.35320313 -2.30078125 6.47265625 C-1.98780141 3.89971808 -1.29573378 2.22494525 0 0 Z M1 7 C2 10 2 10 2 10 Z M3 7 C3 7.99 3 8.98 3 10 C4.32 9.67 5.64 9.34 7 9 C7 8.34 7 7.68 7 7 C5.68 7 4.36 7 3 7 Z M1 15 C1 15.33 1 15.66 1 16 C2.65 16 4.3 16 6 16 C6 15.67 6 15.34 6 15 C4.35 15 2.7 15 1 15 Z " fill="#EBEBEB" transform="translate(279,10)"/>
<path d="M0 0 C2.64 0 5.28 0 8 0 C8.33 0.66 8.66 1.32 9 2 C9.66 2.33 10.32 2.66 11 3 C10.2265625 4.0828125 10.2265625 4.0828125 9.4375 5.1875 C7.73433855 8.5197724 8.18851885 9.48358168 9 13 C8.0625 15.3125 8.0625 15.3125 7 17 C4.69 17 2.38 17 0 17 C-0.33 15.35 -0.66 13.7 -1 12 C-0.01 11.34 0.98 10.68 2 10 C1.484375 9.649375 0.96875 9.29875 0.4375 8.9375 C-1 7 -1 7 -0.6875 3.3125 C-0.460625 2.219375 -0.23375 1.12625 0 0 Z M5 5 C5.33 5.66 5.66 6.32 6 7 C6.33 6.34 6.66 5.68 7 5 C6.34 5 5.68 5 5 5 Z M4 10 C5 12 5 12 5 12 Z " fill="#C67E7F" transform="translate(254,10)"/>
<path d="M0 0 C1.32 0 2.64 0 4 0 C4.99 2.64 5.98 5.28 7 8 C7.33 5.36 7.66 2.72 8 0 C8.33 0 8.66 0 9 0 C9.05386629 2.12472576 9.09273071 4.24983652 9.125 6.375 C9.14820313 7.55835938 9.17140625 8.74171875 9.1953125 9.9609375 C9 13 9 13 7 15 C6.01 15 5.02 15 4 15 C3.67 14.34 3.34 13.68 3 13 C0.69 13.33 -1.62 13.66 -4 14 C-3.46148032 8.72250715 -2.22656164 4.74354436 0 0 Z M1 5 C2 7 2 7 2 7 Z " fill="#898989" transform="translate(272,32)"/>
<path d="M0 0 C0 3.3 0 6.6 0 10 C-1.32 10.33 -2.64 10.66 -4 11 C-4.33 11.99 -4.66 12.98 -5 14 C-6.65 14 -8.3 14 -10 14 C-10 9.38 -10 4.76 -10 0 C-3.375 -1.125 -3.375 -1.125 0 0 Z M-6 4 C-6 4.66 -6 5.32 -6 6 C-5.34 5.67 -4.68 5.34 -4 5 C-4.66 4.67 -5.32 4.34 -6 4 Z " fill="#6C6C6C" transform="translate(233,11)"/>
<path d="M0 0 C1.32 0 2.64 0 4 0 C4.66 1.98 5.32 3.96 6 6 C6.33 4.68 6.66 3.36 7 2 C7.99 2 8.98 2 10 2 C10 6.95 10 11.9 10 17 C8.68 17 7.36 17 6 17 C5.34 15.02 4.68 13.04 4 11 C3.67 12.32 3.34 13.64 3 15 C2.01 15 1.02 15 0 15 C0 10.05 0 5.1 0 0 Z " fill="#4E4E4E" transform="translate(291,52)"/>
<path d="M0 0 C3.63 0 7.26 0 11 0 C10 9.57142857 10 9.57142857 9 14 C6.36 14 3.72 14 1 14 C0.67 9.38 0.34 4.76 0 0 Z " fill="#D09495" transform="translate(199,11)"/>
<path d="M0 0 C0.99 0 1.98 0 3 0 C3.66 2.31 4.32 4.62 5 7 C5.66 4.69 6.32 2.38 7 0 C8.32 0.33 9.64 0.66 11 1 C9.68 6.28 8.36 11.56 7 17 C5.35 17 3.7 17 2 17 C1.46585888 15.10787298 0.94821671 13.21108364 0.4375 11.3125 C0.14746094 10.25675781 -0.14257812 9.20101562 -0.44140625 8.11328125 C-1.00124767 4.99304618 -0.84690764 3.02306766 0 0 Z " fill="#787878" transform="translate(224,30)"/>
<path d="M0 0 C2.97 0 5.94 0 9 0 C9 4.29 9 8.58 9 13 C6.03 13 3.06 13 0 13 C0 8.71 0 4.42 0 0 Z M4 3 C5 5 5 5 5 5 Z M6 3 C6.33 3.66 6.66 4.32 7 5 C7.33 4.34 7.66 3.68 8 3 C7.34 3 6.68 3 6 3 Z M4 8 C5 10 5 10 5 10 Z M6 8 C6 8.66 6 9.32 6 10 C6.66 9.67 7.32 9.34 8 9 C7.34 8.67 6.68 8.34 6 8 Z " fill="#585858" transform="translate(235,32)"/>
<path d="M0 0 C2.97 0 5.94 0 9 0 C9 0.99 9 1.98 9 3 C8.01 3 7.02 3 6 3 C6.99 3.66 7.98 4.32 9 5 C9 6.32 9 7.64 9 9 C8.01 9.33 7.02 9.66 6 10 C6.99 10 7.98 10 9 10 C9 10.99 9 11.98 9 13 C6.03 13 3.06 13 0 13 C0 8.71 0 4.42 0 0 Z M4 3 C5 5 5 5 5 5 Z M4 8 C5 10 5 10 5 10 Z " fill="#5A5A5A" transform="translate(304,32)"/>
<path d="M0 0 C3 1 3 1 4 3 C4.99 3 5.98 3 7 3 C7.1875 5.875 7.1875 5.875 7 9 C6.01 9.66 5.02 10.32 4 11 C4 9.68 4 8.36 4 7 C3.01 7 2.02 7 1 7 C1.33 8.65 1.66 10.3 2 12 C0.35 11.67 -1.3 11.34 -3 11 C-3 12.65 -3 14.3 -3 16 C-3.99 15.67 -4.98 15.34 -6 15 C-5.34 15 -4.68 15 -4 15 C-4 13.35 -4 11.7 -4 10 C-4.99 10 -5.98 10 -7 10 C-7 10.99 -7 11.98 -7 13 C-7.66 13 -8.32 13 -9 13 C-8.67 11.35 -8.34 9.7 -8 8 C-5.69 8.33 -3.38 8.66 -1 9 C-0.67 6.03 -0.34 3.06 0 0 Z " fill="#B04D4E" transform="translate(226,50)"/>
<path d="M0 0 C2.475 0.495 2.475 0.495 5 1 C5 3.64 5 6.28 5 9 C5.99 9.33 6.98 9.66 8 10 C8 11.32 8 12.64 8 14 C5.36 14 2.72 14 0 14 C0 9.38 0 4.76 0 0 Z " fill="#5D5D5D" transform="translate(305,11)"/>
<path d="M0 0 C1.32 0 2.64 0 4 0 C4.06058594 0.60328125 4.12117188 1.2065625 4.18359375 1.828125 C4.26738281 2.62734375 4.35117187 3.4265625 4.4375 4.25 C4.55931641 5.43335938 4.55931641 5.43335938 4.68359375 6.640625 C4.97634993 8.82364639 5.42064419 10.8773182 6 13 C6.66 13 7.32 13 8 13 C8 13.99 8 14.98 8 16 C7.01 15.67 6.02 15.34 5 15 C3.35 14.67 1.7 14.34 0 14 C0 9.38 0 4.76 0 0 Z " fill="#686868" transform="translate(288,11)"/>
<path d="M0 0 C0.99 0 1.98 0 3 0 C4.3125 2.0625 4.3125 2.0625 5 5 C3.65046002 7.59870095 1.84132884 9.73681873 0 12 C-0.33 12.66 -0.66 13.32 -1 14 C-2.98 13.34 -4.96 12.68 -7 12 C-7 11.01 -7 10.02 -7 9 C-6.01 9 -5.02 9 -4 9 C-4 7.35 -4 5.7 -4 4 C-2.35 3.67 -0.7 3.34 1 3 C0.67 2.01 0.34 1.02 0 0 Z M-3 5 C-2 8 -2 8 -2 8 Z M-1 5 C0 7 0 7 0 7 Z " fill="#D29898" transform="translate(227,57)"/>
<path d="M0 0 C0.33 0.99 0.66 1.98 1 3 C2.98 3 4.96 3 7 3 C3.25 5 3.25 5 1 5 C1 5.66 1 6.32 1 7 C1.66 7 2.32 7 3 7 C3 7.66 3 8.32 3 9 C2.34 9 1.68 9 1 9 C1 11.31 1 13.62 1 16 C1.66 16.33 2.32 16.66 3 17 C1.02 16.67 -0.96 16.34 -3 16 C-3 11.71 -3 7.42 -3 3 C-2.01 3 -1.02 3 0 3 C0 2.01 0 1.02 0 0 Z M-2 5 C-1 7 -1 7 -1 7 Z M-2 10 C-1 13 -1 13 -1 13 Z " fill="#C67E7E" transform="translate(255,53)"/>
<path d="M0 0 C0.66 1.32 1.32 2.64 2 4 C2.99 4 3.98 4 5 4 C5.33 2.68 5.66 1.36 6 0 C5.53199289 4.05606165 5.12046792 7.46588679 3 11 C0.69 11 -1.62 11 -4 11 C-4.66 9.02 -5.32 7.04 -6 5 C-4.35 4.67 -2.7 4.34 -1 4 C-0.67 2.68 -0.34 1.36 0 0 Z M-3 9 C-3 9.33 -3 9.66 -3 10 C-1.35 10 0.3 10 2 10 C2 9.67 2 9.34 2 9 C0.35 9 -1.3 9 -3 9 Z " fill="#828282" transform="translate(216,16)"/>
<path d="M0 0 C0.66 0 1.32 0 2 0 C4.1385485 2.1385485 4.42655063 3.13275314 5 6 C5.33 4.35 5.66 2.7 6 1 C6.33 1 6.66 1 7 1 C7.17835515 5.54805635 6.99785435 8.8794254 5 13 C2.36 13 -0.28 13 -3 13 C-3 12.01 -3 11.02 -3 10 C-2.34 10.33 -1.68 10.66 -1 11 C0.17571451 7.32589215 0.07366746 3.83070817 0 0 Z " fill="#A3A3A3" transform="translate(216,34)"/>
<path d="M0 0 C2.31 0.33 4.62 0.66 7 1 C7 1.99 7 2.98 7 4 C6.34 4 5.68 4 5 4 C5.66 5.65 6.32 7.3 7 9 C6.34 9 5.68 9 5 9 C4.67 9.66 4.34 10.32 4 11 C3.34 11 2.68 11 2 11 C1.34 9.68 0.68 8.36 0 7 C-0.66 7 -1.32 7 -2 7 C-2 7.99 -2 8.98 -2 10 C-2.66 10 -3.32 10 -4 10 C-4 7.69 -4 5.38 -4 3 C-2.68 2.34 -1.36 1.68 0 1 C0 0.67 0 0.34 0 0 Z M2 5 C2.33 5.66 2.66 6.32 3 7 C3.33 6.34 3.66 5.68 4 5 C3.34 5 2.68 5 2 5 Z " fill="#D8A6A6" transform="translate(238,50)"/>
<path d="M0 0 C1.52359531 2.93836239 2.78518275 5.92246295 4 9 C4.33 9.66 4.66 10.32 5 11 C1.98155093 12.25768711 -0.8078874 13.20197185 -4 14 C-4 10.04 -4 6.08 -4 2 C-2.68 2 -1.36 2 0 2 C0 1.34 0 0.68 0 0 Z M0 5 C1 7 1 7 1 7 Z " fill="#D6A1A2" transform="translate(203,56)"/>
<path d="M0 0 C0.33 0 0.66 0 1 0 C0.98259766 0.90492187 0.98259766 0.90492187 0.96484375 1.828125 C0.95582031 2.62734375 0.94679687 3.4265625 0.9375 4.25 C0.92589844 5.03890625 0.91429687 5.8278125 0.90234375 6.640625 C0.99614694 8.90691002 1.36758937 10.8288895 2 13 C0.68 13.33 -0.64 13.66 -2 14 C-2.66 12.35 -3.32 10.7 -4 9 C-4.66 9.99 -5.32 10.98 -6 12 C-6.125 9.625 -6.125 9.625 -6 7 C-5.34 6.34 -4.68 5.68 -4 5 C-4.66 5 -5.32 5 -6 5 C-6 3.68 -6 2.36 -6 1 C-3.525 1.495 -3.525 1.495 -1 2 C-0.67 1.34 -0.34 0.68 0 0 Z M-3 2 C-2 4 -2 4 -2 4 Z " fill="#696969" transform="translate(254,33)"/>
<path d="M0 0 C1.32 0 2.64 0 4 0 C4 1.65 4 3.3 4 5 C3.01 4.67 2.02 4.34 1 4 C1 5.32 1 6.64 1 8 C1.99 8.33 2.98 8.66 4 9 C2.68 9 1.36 9 0 9 C0 10.65 0 12.3 0 14 C-1.32 14 -2.64 14 -4 14 C-3.46148032 8.72250715 -2.22656164 4.74354436 0 0 Z " fill="#262626" transform="translate(272,32)"/>
<path d="M0 0 C2.475 0.99 2.475 0.99 5 2 C4.34 2.66 3.68 3.32 3 4 C2.34 3.67 1.68 3.34 1 3 C1 3.99 1 4.98 1 6 C2.32 5.67 3.64 5.34 5 5 C5.33 7.31 5.66 9.62 6 12 C2.33694766 12.74926071 -0.42355152 13.2380014 -4 12 C-4 11.01 -4 10.02 -4 9 C-2.68 9.33 -1.36 9.66 0 10 C0 6.7 0 3.4 0 0 Z " fill="#A0A0A0" transform="translate(308,56)"/>
<path d="M0 0 C0.33 0.66 0.66 1.32 1 2 C2.65 2 4.3 2 6 2 C7.42857143 10.42857143 7.42857143 10.42857143 5 15 C3.02 14.01 1.04 13.02 -1 12 C-0.67 10.02 -0.34 8.04 0 6 C1.65 6 3.3 6 5 6 C5 5.01 5 4.02 5 3 C3.02 3 1.04 3 -1 3 C-0.67 2.01 -0.34 1.02 0 0 Z " fill="#D09595" transform="translate(209,56)"/>
<path d="M0 0 C2.31 0.66 4.62 1.32 7 2 C7 2.99 7 3.98 7 5 C5.35 5.33 3.7 5.66 2 6 C1.67 7.65 1.34 9.3 1 11 C0.34 11 -0.32 11 -1 11 C-1.33 11.66 -1.66 12.32 -2 13 C-3.19876651 7.55106131 -2.91360308 4.77830905 0 0 Z " fill="#444444" transform="translate(295,30)"/>
<path d="M0 0 C1.32 0 2.64 0 4 0 C4 4.29 4 8.58 4 13 C2.68 13 1.36 13 0 13 C0 8.71 0 4.42 0 0 Z " fill="#4E4E4E" transform="translate(285,54)"/>
<path d="M0 0 C0.33 1.32 0.66 2.64 1 4 C2.32 4 3.64 4 5 4 C5 3.34 5 2.68 5 2 C7.64 2.33 10.28 2.66 13 3 C12.67 4.98 12.34 6.96 12 9 C10.66666667 8.33333333 9.33333333 7.66666667 8 7 C6.7934375 7.2784375 6.7934375 7.2784375 5.5625 7.5625 C3 8 3 8 0 6 C-0.1875 2.875 -0.1875 2.875 0 0 Z " fill="#CB8989" transform="translate(256,62)"/>
<path d="M0 0 C0.99 0 1.98 0 3 0 C3.98936713 4.94683566 4.29458238 8.41083524 2 13 C-0.125 13.875 -0.125 13.875 -2 14 C-2.33 12.02 -2.66 10.04 -3 8 C-2.34 8 -1.68 8 -1 8 C-0.67 5.36 -0.34 2.72 0 0 Z " fill="#5B5B5B" transform="translate(265,32)"/>
<path d="M0 0 C0.99 0 1.98 0 3 0 C3.33 3.96 3.66 7.92 4 12 C4.66 12 5.32 12 6 12 C6 12.99 6 13.98 6 15 C5.01 15 4.02 15 3 15 C0.24467166 10.20812462 -0.63176357 6.43148733 -1 1 C-0.67 0.67 -0.34 0.34 0 0 Z " fill="#2A2A2A" transform="translate(224,30)"/>
<path d="M0 0 C1.32 0.33 2.64 0.66 4 1 C3.01 2.485 3.01 2.485 2 4 C2.30185427 6.95817184 2.66718829 9.33437658 4 12 C1.03 11.505 1.03 11.505 -2 11 C-2.94693195 7.2983569 -3.30443767 5.60887535 -1.5625 2.125 C-1.046875 1.42375 -0.53125 0.7225 0 0 Z " fill="#343333" transform="translate(266,12)"/>
<path d="M0 0 C0.33 0.99 0.66 1.98 1 3 C1.66 3.33 2.32 3.66 3 4 C2.67 4.66 2.34 5.32 2 6 C2.66 6.33 3.32 6.66 4 7 C3.01 7.33 2.02 7.66 1 8 C1 9.65 1 11.3 1 13 C0.34 13 -0.32 13 -1 13 C-3.67927341 8.98108988 -3.15601248 6.75838077 -3 2 C-2.01 2 -1.02 2 0 2 C0 1.34 0 0.68 0 0 Z " fill="#A22B2C" transform="translate(238,55)"/>
<path d="M0 0 C0.33 0.99 0.66 1.98 1 3 C3.31 3 5.62 3 8 3 C8 3.66 8 4.32 8 5 C6.68 5.33 5.36 5.66 4 6 C4 6.99 4 7.98 4 9 C2.35 8.67 0.7 8.34 -1 8 C-1 6.68 -1 5.36 -1 4 C-2.65 4 -4.3 4 -6 4 C-6 3.67 -6 3.34 -6 3 C-4.02 3 -2.04 3 0 3 C0 2.01 0 1.02 0 0 Z " fill="#A32F30" transform="translate(206,56)"/>
<path d="M0 0 C13.2 0 26.4 0 40 0 C40 0.33 40 0.66 40 1 C26.8 1 13.6 1 0 1 C0 0.67 0 0.34 0 0 Z " fill="#FDFDFD" transform="translate(4,3)"/>
<path d="M0 0 C0.99 0.33 1.98 0.66 3 1 C2.01 1.66 1.02 2.32 0 3 C-0.73606499 6.56769552 -0.73606499 6.56769552 -1 10 C0.32 10.66 1.64 11.32 3 12 C0.625 12.125 0.625 12.125 -2 12 C-4 10 -4 10 -4.375 7.125 C-3.92491816 3.37431801 -2.87398748 2.33511483 0 0 Z " fill="#131313" transform="translate(281,12)"/>
<path d="M0 0 C0.99 0 1.98 0 3 0 C3 4.29 3 8.58 3 13 C2.01 13 1.02 13 0 13 C0 8.71 0 4.42 0 0 Z " fill="#313131" transform="translate(288,32)"/>
<path d="M0 0 C0.33 0 0.66 0 1 0 C1 2.64 1 5.28 1 8 C-0.65 8.66 -2.3 9.32 -4 10 C-5.125 3.25 -5.125 3.25 -4 1 C-2.02 1.495 -2.02 1.495 0 2 C0 1.34 0 0.68 0 0 Z M-4 4 C-4 4.99 -4 5.98 -4 7 C-2.68 6.34 -1.36 5.68 0 5 C-1.32 4.67 -2.64 4.34 -4 4 Z " fill="#ECECEC" transform="translate(302,33)"/>
<path d="M0 0 C1.32 0.33 2.64 0.66 4 1 C3.25 7.75 3.25 7.75 1 10 C0.01 10 -0.98 10 -2 10 C-1.34 6.7 -0.68 3.4 0 0 Z " fill="#747474" transform="translate(296,9)"/>
<path d="M0 0 C0 1.98 0 3.96 0 6 C-1.32 6.33 -2.64 6.66 -4 7 C-4 6.34 -4 5.68 -4 5 C-4.99 5 -5.98 5 -7 5 C-7 3.68 -7 2.36 -7 1 C-4.50935112 0.31292445 -2.62113708 0 0 0 Z M-6 2 C-6 2.66 -6 3.32 -6 4 C-5.34 3.67 -4.68 3.34 -4 3 C-4.66 2.67 -5.32 2.34 -6 2 Z " fill="#6C6C6C" transform="translate(233,13)"/>
<path d="M0 0 C0.66 0.33 1.32 0.66 2 1 C1.58578031 5.83256305 -0.46413986 7.82679218 -4 11 C-4.99 10.67 -5.98 10.34 -7 10 C-6.57847656 9.44570313 -6.15695313 8.89140625 -5.72265625 8.3203125 C-5.17480469 7.59585937 -4.62695312 6.87140625 -4.0625 6.125 C-3.51722656 5.40570312 -2.97195312 4.68640625 -2.41015625 3.9453125 C-0.96035376 2.05642921 -0.96035376 2.05642921 0 0 Z " fill="#BC6869" transform="translate(117,9)"/>
<path d="M0 0 C1.125 3.75 1.125 3.75 0 6 C-3.02419525 5.41196203 -6.01758453 4.77321882 -9 4 C-9 3.01 -9 2.02 -9 1 C-2.25 0 -2.25 0 0 0 Z " fill="#DAAAAB" transform="translate(209,30)"/>
<path d="M0 0 C0 3.3 0 6.6 0 10 C-1.65 10 -3.3 10 -5 10 C-4.67 8.68 -4.34 7.36 -4 6 C-3.01 6 -2.02 6 -1 6 C-1 5.34 -1 4.68 -1 4 C-1.99 3.67 -2.98 3.34 -4 3 C-4 2.34 -4 1.68 -4 1 C-1 0 -1 0 0 0 Z " fill="#BC6667" transform="translate(247,53)"/>
<path d="M0 0 C0.66 0.33 1.32 0.66 2 1 C1.67 2.65 1.34 4.3 1 6 C-4.53846154 6.36923077 -4.53846154 6.36923077 -6.875 4.5 C-7.24625 4.005 -7.6175 3.51 -8 3 C-7.236875 2.87625 -6.47375 2.7525 -5.6875 2.625 C-2.79732864 2.11897208 -2.79732864 2.11897208 0 0 Z M-5 4 C-5 4.33 -5 4.66 -5 5 C-3.35 5 -1.7 5 0 5 C0 4.67 0 4.34 0 4 C-1.65 4 -3.3 4 -5 4 Z " fill="#A4A4A4" transform="translate(285,21)"/>
<path d="M0 0 C8.91 0 17.82 0 27 0 C27 0.33 27 0.66 27 1 C18.09 1 9.18 1 0 1 C0 0.67 0 0.34 0 0 Z " fill="#FFFFFF" transform="translate(146,47)"/>
<path d="M0 0 C2.31 0.66 4.62 1.32 7 2 C7 2.99 7 3.98 7 5 C4.66666667 5 2.33333333 5 0 5 C-0.99 5.495 -0.99 5.495 -2 6 C-1.34 4.02 -0.68 2.04 0 0 Z " fill="#6D6D6D" transform="translate(295,30)"/>
<path d="M0 0 C2.64 0 5.28 0 8 0 C7.67 1.65 7.34 3.3 7 5 C6.2575 4.608125 5.515 4.21625 4.75 3.8125 C3.8425 3.544375 2.935 3.27625 2 3 C-0.32511472 4.26352052 -0.32511472 4.26352052 -2 6 C-1.34 4.02 -0.68 2.04 0 0 Z " fill="#848484" transform="translate(279,10)"/>
<path d="M0 0 C0.99 0.66 1.98 1.32 3 2 C1.35 3.65 -0.3 5.3 -2 7 C-2 6.01 -2 5.02 -2 4 C-2.99 3.34 -3.98 2.68 -5 2 C-5.33 1.34 -5.66 0.68 -6 0 C-2.25 -1.125 -2.25 -1.125 0 0 Z " fill="#D9A9AA" transform="translate(262,11)"/>
<path d="M0 0 C0.99 0 1.98 0 3 0 C3 1.65 3 3.3 3 5 C2.34 5 1.68 5 1 5 C1 5.99 1 6.98 1 8 C0.01 8 -0.98 8 -2 8 C-2 6.35 -2 4.7 -2 3 C-1.34 3 -0.68 3 0 3 C0 2.01 0 1.02 0 0 Z M1 1 C2 4 2 4 2 4 Z " fill="#C17374" transform="translate(219,60)"/>
<path d="M0 0 C0.33 0.99 0.66 1.98 1 3 C-0.65 3 -2.3 3 -4 3 C-4.33 3.66 -4.66 4.32 -5 5 C-6.32 4.67 -7.64 4.34 -9 4 C-8.67 3.01 -8.34 2.02 -8 1 C-5.36 0.67 -2.72 0.34 0 0 Z " fill="#BF6F70" transform="translate(224,52)"/>
<path d="M0 0 C0.66 0 1.32 0 2 0 C2 0.66 2 1.32 2 2 C3.65 1.67 5.3 1.34 7 1 C7 1.99 7 2.98 7 4 C5.35 4 3.7 4 2 4 C2 4.66 2 5.32 2 6 C1.01 6 0.02 6 -1 6 C-0.67 4.02 -0.34 2.04 0 0 Z M0 3 C1 5 1 5 1 5 Z " fill="#B85E5F" transform="translate(259,60)"/>
<path d="M0 0 C0.33 0.66 0.66 1.32 1 2 C2.65 2 4.3 2 6 2 C6.33 4.64 6.66 7.28 7 10 C6.01 10 5.02 10 4 10 C3.34 8.68 2.68 7.36 2 6 C2.99 6 3.98 6 5 6 C5 5.01 5 4.02 5 3 C3.02 3 1.04 3 -1 3 C-0.67 2.01 -0.34 1.02 0 0 Z " fill="#EFDBDB" transform="translate(209,56)"/>
<path d="M0 0 C1.32 0 2.64 0 4 0 C4.33 2.64 4.66 5.28 5 8 C3.0625 7.375 3.0625 7.375 1 6 C0.25 2.875 0.25 2.875 0 0 Z " fill="#565656" transform="translate(291,52)"/>
<path d="M0 0 C0.99 0 1.98 0 3 0 C3 1.98 3 3.96 3 6 C2.34 6 1.68 6 1 6 C0.67 6.99 0.34 7.98 0 9 C-0.87890625 2.84765625 -0.87890625 2.84765625 -1 1 C-0.67 0.67 -0.34 0.34 0 0 Z " fill="#7C7C7C" transform="translate(224,30)"/>
<path d="M0 0 C2.475 0.99 2.475 0.99 5 2 C4.34 2.66 3.68 3.32 3 4 C2.34 3.67 1.68 3.34 1 3 C1 3.99 1 4.98 1 6 C1.66 6.33 2.32 6.66 3 7 C3 7.66 3 8.32 3 9 C2.01 9 1.02 9 0 9 C0 6.03 0 3.06 0 0 Z " fill="#E7E7E7" transform="translate(308,56)"/>
<path d="M0 0 C1.74627478 2.61941217 2.38722388 4.03824877 3 7 C1.68 7.33 0.36 7.66 -1 8 C-1.33 6.02 -1.66 4.04 -2 2 C-1.34 2 -0.68 2 0 2 C0 1.34 0 0.68 0 0 Z " fill="#767676" transform="translate(253,39)"/>
<path d="M0 0 C1.32 0 2.64 0 4 0 C4.33 2.64 4.66 5.28 5 8 C3.0625 7.375 3.0625 7.375 1 6 C0.25 2.875 0.25 2.875 0 0 Z " fill="#575757" transform="translate(257,30)"/>
<path d="M0 0 C1.99954746 -0.04254356 4.00041636 -0.04080783 6 0 C7 1 7 1 7.0625 4.0625 C7.041875 5.031875 7.02125 6.00125 7 7 C6.01 7.495 6.01 7.495 5 8 C4.731875 7.05125 4.46375 6.1025 4.1875 5.125 C3.25013412 1.74732727 3.25013412 1.74732727 0 0 Z " fill="#0B0B0B" transform="translate(215,33)"/>
<path d="M0 0 C1.32 0 2.64 0 4 0 C4 1.98 4 3.96 4 6 C1.69 6 -0.62 6 -3 6 C-3 5.67 -3 5.34 -3 5 C-1.35 5 0.3 5 2 5 C2 4.01 2 3.02 2 2 C1.34 2 0.68 2 0 2 C0 1.34 0 0.68 0 0 Z " fill="#9A1A1B" transform="translate(205,38)"/>
<path d="M0 0 C1.2065625 0.0309375 1.2065625 0.0309375 2.4375 0.0625 C1.98375 0.454375 1.53 0.84625 1.0625 1.25 C-0.83892919 3.37082487 -1.62454028 5.39292235 -2.5625 8.0625 C-2.8925 8.0625 -3.2225 8.0625 -3.5625 8.0625 C-3.60491723 5.72955225 -3.60342937 3.39547433 -3.5625 1.0625 C-2.5625 0.0625 -2.5625 0.0625 0 0 Z " fill="#9F2526" transform="translate(203.5625,32.9375)"/>
<path d="M0 0 C0.33 0 0.66 0 1 0 C1.66 2.97 2.32 5.94 3 9 C1.68 8.67 0.36 8.34 -1 8 C-1.04241723 5.66705225 -1.04092937 3.33297433 -1 1 C-0.67 0.67 -0.34 0.34 0 0 Z " fill="#0C0C0C" transform="translate(305,57)"/>
<path d="M0 0 C0.33 0 0.66 0 1 0 C0.67 5.94 0.34 11.88 0 18 C-0.33 18 -0.66 18 -1 18 C-1.02717692 15.93757383 -1.0464758 13.87504297 -1.0625 11.8125 C-1.07410156 10.66394531 -1.08570312 9.51539063 -1.09765625 8.33203125 C-1.01192832 5.40699414 -0.67849023 2.83683709 0 0 Z " fill="#FCFCFC" transform="translate(102,43)"/>
<path d="M0 0 C0.99 0.66 1.98 1.32 3 2 C2.01 2.33 1.02 2.66 0 3 C0 4.65 0 6.3 0 8 C-0.66 8 -1.32 8 -2 8 C-2.33 6.35 -2.66 4.7 -3 3 C-2.34 3 -1.68 3 -1 3 C-0.67 2.01 -0.34 1.02 0 0 Z " fill="#A83A3B" transform="translate(239,60)"/>
<path d="M0 0 C0.33 0.66 0.66 1.32 1 2 C1.66 2 2.32 2 3 2 C3 2.66 3 3.32 3 4 C2.34 4 1.68 4 1 4 C1 5.98 1 7.96 1 10 C0.01 9.67 -0.98 9.34 -2 9 C-1.34 9 -0.68 9 0 9 C0 7.35 0 5.7 0 4 C-0.66 3.67 -1.32 3.34 -2 3 C-1.34 2.01 -0.68 1.02 0 0 Z " fill="#9A191A" transform="translate(255,58)"/>
<path d="M0 0 C1.5625 1.25 1.5625 1.25 3 3 C2.6875 5.1875 2.6875 5.1875 2 7 C1.01 7 0.02 7 -1 7 C-0.67 4.69 -0.34 2.38 0 0 Z " fill="#707070" transform="translate(269,39)"/>
<path d="M0 0 C0.33 0 0.66 0 1 0 C1 3.96 1 7.92 1 12 C0.01 11.67 -0.98 11.34 -2 11 C-2 10.34 -2 9.68 -2 9 C-1.34 9 -0.68 9 0 9 C0 6.03 0 3.06 0 0 Z " fill="#010101" transform="translate(299,54)"/>
<path d="M0 0 C0.99 0 1.98 0 3 0 C2.67 1.65 2.34 3.3 2 5 C2.99 5.33 3.98 5.66 5 6 C3.35 5.67 1.7 5.34 0 5 C-0.33 4.01 -0.66 3.02 -1 2 C-0.67 1.34 -0.34 0.68 0 0 Z " fill="#999999" transform="translate(286,41)"/>
<path d="M0 0 C2.31 0.33 4.62 0.66 7 1 C6.01 2.32 5.02 3.64 4 5 C3.67 4.34 3.34 3.68 3 3 C2.01 2.67 1.02 2.34 0 2 C0 1.34 0 0.68 0 0 Z " fill="#AB4142" transform="translate(255,17)"/>
<path d="M0 0 C4.62 0 9.24 0 14 0 C14 0.33 14 0.66 14 1 C9.38 1 4.76 1 0 1 C0 0.67 0 0.34 0 0 Z " fill="#FDFBFB" transform="translate(200,51)"/>
<path d="M0 0 C4.62 0 9.24 0 14 0 C14 0.33 14 0.66 14 1 C9.38 1 4.76 1 0 1 C0 0.67 0 0.34 0 0 Z " fill="#FDFCFC" transform="translate(134,1)"/>
<path d="M0 0 C0.33 0 0.66 0 1 0 C1 4.29 1 8.58 1 13 C0.67 13 0.34 13 0 13 C0 8.71 0 4.42 0 0 Z " fill="#FBFBFB" transform="translate(283,54)"/>
<path d="M0 0 C3.96 0 7.92 0 12 0 C12 0.33 12 0.66 12 1 C8.04 1 4.08 1 0 1 C0 0.67 0 0.34 0 0 Z " fill="#FCFCFC" transform="translate(70,1)"/>
<path d="M0 0 C0.33 0 0.66 0 1 0 C1 3.3 1 6.6 1 10 C0.67 10 0.34 10 0 10 C0 6.7 0 3.4 0 0 Z " fill="#FDFCFC" transform="translate(118,36)"/>
<path d="M0 0 C0.33 0 0.66 0 1 0 C1 3.3 1 6.6 1 10 C0.67 10 0.34 10 0 10 C0 6.7 0 3.4 0 0 Z " fill="#FDFBFB" transform="translate(177,34)"/>
<path d="M0 0 C0.33 0 0.66 0 1 0 C1 3.3 1 6.6 1 10 C0.67 10 0.34 10 0 10 C0 6.7 0 3.4 0 0 Z " fill="#FBFBFB" transform="translate(48,7)"/>
<path d="M0 0 C3.3 0 6.6 0 10 0 C10 0.33 10 0.66 10 1 C6.7 1 3.4 1 0 1 C0 0.67 0 0.34 0 0 Z " fill="#FEFDFD" transform="translate(199,9)"/>
<path d="M0 0 C2.97 0 5.94 0 9 0 C9 0.33 9 0.66 9 1 C6.03 1 3.06 1 0 1 C0 0.67 0 0.34 0 0 Z " fill="#FEFDFD" transform="translate(136,79)"/>
<path d="M0 0 C0.33 0 0.66 0 1 0 C1 1.98 1 3.96 1 6 C0.34 6 -0.32 6 -1 6 C-0.67 4.02 -0.34 2.04 0 0 Z " fill="#FCFCFC" transform="translate(233,39)"/>
<path d="M0 0 C0.66 0 1.32 0 2 0 C2 1.98 2 3.96 2 6 C0 3 0 3 0 0 Z " fill="#FCFCFC" transform="translate(302,12)"/>
<path d="M0 0 C0.66 0.33 1.32 0.66 2 1 C0.35 2.32 -1.3 3.64 -3 5 C-1.125 1.125 -1.125 1.125 0 0 Z " fill="#FDFDFD" transform="translate(59,6)"/>
<path d="M0 0 C2.64 0 5.28 0 8 0 C8 0.33 8 0.66 8 1 C5.36 1 2.72 1 0 1 C0 0.67 0 0.34 0 0 Z " fill="#FFFFFF" transform="translate(216,51)"/>
<path d="M0 0 C2.64 0 5.28 0 8 0 C8 0.33 8 0.66 8 1 C5.36 1 2.72 1 0 1 C0 0.67 0 0.34 0 0 Z " fill="#FFFFFF" transform="translate(235,46)"/>
<path d="M0 0 C2.64 0 5.28 0 8 0 C8 0.33 8 0.66 8 1 C5.36 1 2.72 1 0 1 C0 0.67 0 0.34 0 0 Z " fill="#FFFFFF" transform="translate(235,30)"/>
<path d="M0 0 C2.64 0 5.28 0 8 0 C8 0.33 8 0.66 8 1 C5.36 1 2.72 1 0 1 C0 0.67 0 0.34 0 0 Z " fill="#FBFBFB" transform="translate(305,26)"/>
<path d="M0 0 C2.64 0 5.28 0 8 0 C8 0.33 8 0.66 8 1 C5.36 1 2.72 1 0 1 C0 0.67 0 0.34 0 0 Z " fill="#FDFBFB" transform="translate(137,17)"/>
<path d="M0 0 C0.99 0.495 0.99 0.495 2 1 C1.67 2.65 1.34 4.3 1 6 C0.67 6 0.34 6 0 6 C0 4.02 0 2.04 0 0 Z " fill="#FAFAFA" transform="translate(293,11)"/>
<path d="M0 0 C2.31 0 4.62 0 7 0 C7 0.33 7 0.66 7 1 C4.69 1 2.38 1 0 1 C0 0.67 0 0.34 0 0 Z " fill="#FCFCFC" transform="translate(71,79)"/>
<path d="M0 0 C2.31 0 4.62 0 7 0 C7 0.33 7 0.66 7 1 C4.69 1 2.38 1 0 1 C0 0.67 0 0.34 0 0 Z " fill="#FFFFFF" transform="translate(305,46)"/>
<path d="M0 0 C0.33 0 0.66 0 1 0 C1 2.31 1 4.62 1 7 C0.67 7 0.34 7 0 7 C0 4.69 0 2.38 0 0 Z " fill="#FEFCFC" transform="translate(197,35)"/>
<path d="M0 0 C0.33 0 0.66 0 1 0 C1 2.31 1 4.62 1 7 C0.67 7 0.34 7 0 7 C0 4.69 0 2.38 0 0 Z " fill="#FEFCFC" transform="translate(102,32)"/>
<path d="M0 0 C0.66 0 1.32 0 2 0 C2 1.65 2 3.3 2 5 C0 2 0 2 0 0 Z " fill="#FBFBFB" transform="translate(277,32)"/>
<path d="M0 0 C2.31 0 4.62 0 7 0 C7 0.33 7 0.66 7 1 C4.69 1 2.38 1 0 1 C0 0.67 0 0.34 0 0 Z " fill="#FFFFFF" transform="translate(305,30)"/>
<path d="M0 0 C2.31 0 4.62 0 7 0 C7 0.33 7 0.66 7 1 C4.69 1 2.38 1 0 1 C0 0.67 0 0.34 0 0 Z " fill="#FDFDFD" transform="translate(223,9)"/>
<path d="M0 0 C0.33 0 0.66 0 1 0 C1 1.98 1 3.96 1 6 C0.67 6 0.34 6 0 6 C0 4.02 0 2.04 0 0 Z " fill="#FCFCFC" transform="translate(49,57)"/>
<path d="M0 0 C0.33 0 0.66 0 1 0 C1 1.98 1 3.96 1 6 C0.67 6 0.34 6 0 6 C0 4.02 0 2.04 0 0 Z " fill="#FEFDFD" transform="translate(142,39)"/>
<path d="M0 0 C0.33 0 0.66 0 1 0 C1 1.98 1 3.96 1 6 C0.67 6 0.34 6 0 6 C0 4.02 0 2.04 0 0 Z " fill="#FCFCFC" transform="translate(234,13)"/>
<path d="M0 0 C1.65 0 3.3 0 5 0 C5 0.33 5 0.66 5 1 C3.35 1 1.7 1 0 1 C0 0.67 0 0.34 0 0 Z " fill="#FEFCFC" transform="translate(145,78)"/>
<path d="M0 0 C1.65 0 3.3 0 5 0 C5 0.33 5 0.66 5 1 C3.35 1 1.7 1 0 1 C0 0.67 0 0.34 0 0 Z " fill="#FEFCFC" transform="translate(131,78)"/>
<path d="M0 0 C1.65 0 3.3 0 5 0 C5 0.33 5 0.66 5 1 C3.35 1 1.7 1 0 1 C0 0.67 0 0.34 0 0 Z " fill="#FCFCFC" transform="translate(55,51)"/>
<path d="M0 0 C0.66 0 1.32 0 2 0 C1.67 0.99 1.34 1.98 1 3 C0.67 2.01 0.34 1.02 0 0 Z " fill="#FCFCFC" transform="translate(223,42)"/>
<path d="M0 0 C0.99 0.495 0.99 0.495 2 1 C1.01 2.485 1.01 2.485 0 4 C0 2.68 0 1.36 0 0 Z " fill="#FDFDFD" transform="translate(269,32)"/>
<path d="M0 0 C0.99 0.495 0.99 0.495 2 1 C1.01 2.485 1.01 2.485 0 4 C0 2.68 0 1.36 0 0 Z " fill="#FBFBFB" transform="translate(228,32)"/>
<path d="M0 0 C1.65 0 3.3 0 5 0 C5 0.33 5 0.66 5 1 C3.35 1 1.7 1 0 1 C0 0.67 0 0.34 0 0 Z " fill="#FDFCFC" transform="translate(161,27)"/>
<path d="M0 0 C0.33 0 0.66 0 1 0 C1 1.65 1 3.3 1 5 C0.67 5 0.34 5 0 5 C0 3.35 0 1.7 0 0 Z " fill="#FCFCFC" transform="translate(51,17)"/>
<path d="M0 0 C1.65 0 3.3 0 5 0 C5 0.33 5 0.66 5 1 C3.35 1 1.7 1 0 1 C0 0.67 0 0.34 0 0 Z " fill="#FCFCFC" transform="translate(267,9)"/>
<path d="M0 0 C1.65 0 3.3 0 5 0 C5 0.33 5 0.66 5 1 C3.35 1 1.7 1 0 1 C0 0.67 0 0.34 0 0 Z " fill="#FCFCFC" transform="translate(213,9)"/>
<path d="M0 0 C4 1 4 1 4 1 Z " fill="#FDFDFD" transform="translate(22,79)"/>
<path d="M0 0 C4 1 4 1 4 1 Z " fill="#FCFCFC" transform="translate(79,78)"/>
<path d="M0 0 C4 1 4 1 4 1 Z " fill="#FCFCFC" transform="translate(67,78)"/>
<path d="M0 0 C0.33 0.99 0.66 1.98 1 3 C0.34 2.67 -0.32 2.34 -1 2 C-0.67 1.34 -0.34 0.68 0 0 Z " fill="#FDFBFB" transform="translate(232,62)"/>
<path d="M0 0 C4 1 4 1 4 1 Z " fill="#FFFFFF" transform="translate(139,63)"/>
<path d="M0 0 C0.99 0.495 0.99 0.495 2 1 C1.34 1.66 0.68 2.32 0 3 C0 2.01 0 1.02 0 0 Z " fill="#FEFEFE" transform="translate(302,54)"/>
<path d="M0 0 C4 1 4 1 4 1 Z " fill="#FEFCFC" transform="translate(234,51)"/>
<path d="M0 0 C1 4 1 4 1 4 Z " fill="#FEFDFD" transform="translate(119,46)"/>
<path d="M0 0 C1 4 1 4 1 4 Z " fill="#FEFDFD" transform="translate(119,32)"/>
<path d="M0 0 C4 1 4 1 4 1 Z " fill="#FEFEFE" transform="translate(272,30)"/>
<path d="M0 0 C1 4 1 4 1 4 Z " fill="#FCFCFC" transform="translate(51,27)"/>
<path d="M0 0 C4 1 4 1 4 1 Z " fill="#FCFCFC" transform="translate(288,26)"/>
<path d="M0 0 C4 1 4 1 4 1 Z " fill="#FCFCFC" transform="translate(223,26)"/>
<path d="M0 0 C1 4 1 4 1 4 Z " fill="#FDFDFD" transform="translate(50,22)"/>
<path d="M0 0 C0.66 0.66 1.32 1.32 2 2 C1.01 2.495 1.01 2.495 0 3 C0 2.01 0 1.02 0 0 Z " fill="#FEFDFD" transform="translate(253,18)"/>
<path d="M0 0 C1 4 1 4 1 4 Z " fill="#FBFBFB" transform="translate(214,16)"/>
<path d="M0 0 C1 4 1 4 1 4 Z " fill="#FDFDFD" transform="translate(268,16)"/>
<path d="M0 0 C4 1 4 1 4 1 Z " fill="#FDFDFD" transform="translate(288,9)"/>
<path d="M0 0 C4 1 4 1 4 1 Z " fill="#FBFBFB" transform="translate(281,9)"/>
<path d="M0 0 C4 1 4 1 4 1 Z " fill="#FEFCFC" transform="translate(256,9)"/>
<path d="M0 0 C4 1 4 1 4 1 Z " fill="#FEFCFC" transform="translate(148,2)"/>
<path d="M0 0 C4 1 4 1 4 1 Z " fill="#FEFCFC" transform="translate(130,2)"/>
<path d="M0 0 C4 1 4 1 4 1 Z " fill="#FCFCFC" transform="translate(82,2)"/>
<path d="M0 0 C4 1 4 1 4 1 Z " fill="#FDFDFD" transform="translate(66,2)"/>
<path d="M0 0 C3 1 3 1 3 1 Z " fill="#FEFCFC" transform="translate(150,77)"/>
<path d="M0 0 C3 1 3 1 3 1 Z " fill="#FDFCFC" transform="translate(128,77)"/>
<path d="M0 0 C3 1 3 1 3 1 Z " fill="#FCFCFC" transform="translate(83,77)"/>
<path d="M0 0 C3 1 3 1 3 1 Z " fill="#FEFDFD" transform="translate(246,70)"/>
<path d="M0 0 C3 1 3 1 3 1 Z " fill="#FFFFFF" transform="translate(291,68)"/>
<path d="M0 0 C3 1 3 1 3 1 Z " fill="#FFFFFF" transform="translate(285,68)"/>
<path d="" fill="#FCFCFC" transform="translate(0,0)"/>
<path d="" fill="#FDFCFC" transform="translate(0,0)"/>
<path d="" fill="#FCFCFC" transform="translate(0,0)"/>
<path d="" fill="#FFFEFE" transform="translate(0,0)"/>
<path d="" fill="#FEFDFD" transform="translate(0,0)"/>
<path d="M0 0 C3 1 3 1 3 1 Z " fill="#FFFFFF" transform="translate(298,52)"/>
<path d="M0 0 C3 1 3 1 3 1 Z " fill="#FDFCFC" transform="translate(168,51)"/>
<path d="" fill="#FEFCFC" transform="translate(0,0)"/>
<path d="M0 0 C3 1 3 1 3 1 Z " fill="#FEFEFE" transform="translate(261,50)"/>
<path d="M0 0 C3 1 3 1 3 1 Z " fill="#FDFDFD" transform="translate(254,50)"/>
<path d="M0 0 C3 1 3 1 3 1 Z " fill="#FDFDFD" transform="translate(246,50)"/>
<path d="M0 0 C3 1 3 1 3 1 Z " fill="#FDFDFD" transform="translate(165,50)"/>
<path d="M0 0 C3 1 3 1 3 1 Z " fill="#FDFDFD" transform="translate(297,47)"/>
<path d="M0 0 C3 1 3 1 3 1 Z " fill="#FEFEFE" transform="translate(204,47)"/>
<path d="M0 0 C3 1 3 1 3 1 Z " fill="#FEFEFE" transform="translate(264,46)"/>
<path d="M0 0 C3 1 3 1 3 1 Z " fill="#FFFFFF" transform="translate(257,46)"/>
<path d="M0 0 C0.66 0.66 1.32 1.32 2 2 C1.34 2 0.68 2 0 2 C0 1.34 0 0.68 0 0 Z " fill="#FAFAFA" transform="translate(292,43)"/>
<path d="" fill="#FDFDFD" transform="translate(0,0)"/>
<path d="" fill="#FBFBFB" transform="translate(0,0)"/>
<path d="M0 0 C0.99 0.495 0.99 0.495 2 1 C1.01 1.495 1.01 1.495 0 2 C0 1.34 0 0.68 0 0 Z " fill="#FAFAFA" transform="translate(292,32)"/>
<path d="" fill="#FDFDFD" transform="translate(0,0)"/>
<path d="M0 0 C3 1 3 1 3 1 Z " fill="#FFFFFF" transform="translate(288,30)"/>
<path d="M0 0 C3 1 3 1 3 1 Z " fill="#FFFFFF" transform="translate(264,30)"/>
<path d="" fill="#FDFCFC" transform="translate(0,0)"/>
<path d="M0 0 C3 1 3 1 3 1 Z " fill="#FDFDFD" transform="translate(297,29)"/>
<path d="M0 0 C3 1 3 1 3 1 Z " fill="#FEFEFE" transform="translate(204,29)"/>
<path d="" fill="#FEFDFD" transform="translate(0,0)"/>
<path d="M0 0 C3 1 3 1 3 1 Z " fill="#FBFBFB" transform="translate(301,26)"/>
<path d="M0 0 C3 1 3 1 3 1 Z " fill="#FDFCFC" transform="translate(203,26)"/>
<path d="M0 0 C3 1 3 1 3 1 Z " fill="#FEFEFE" transform="translate(89,26)"/>
<path d="M0 0 C3 1 3 1 3 1 Z " fill="#FEFCFC" transform="translate(169,25)"/>
<path d="M0 0 C0.66 0.66 1.32 1.32 2 2 C1.34 2 0.68 2 0 2 C0 1.34 0 0.68 0 0 Z " fill="#FDFDFD" transform="translate(85,23)"/>
<path d="M0 0 C0.33 0.66 0.66 1.32 1 2 C0.34 1.67 -0.32 1.34 -1 1 C-0.67 0.67 -0.34 0.34 0 0 Z " fill="#FBFBFB" transform="translate(221,23)"/>
<path d="M0 0 C0.33 0.66 0.66 1.32 1 2 C0.34 1.67 -0.32 1.34 -1 1 C-0.67 0.67 -0.34 0.34 0 0 Z " fill="#FDFDFD" transform="translate(276,22)"/>
<path d="M0 0 C3 1 3 1 3 1 Z " fill="#FEFCFC" transform="translate(149,19)"/>
<path d="" fill="#FEFEFE" transform="translate(0,0)"/>
<path d="" fill="#FEFCFC" transform="translate(0,0)"/>
<path d="" fill="#FEFCFC" transform="translate(0,0)"/>
<path d="M0 0 C3 1 3 1 3 1 Z " fill="#FDFDFD" transform="translate(305,9)"/>
<path d="M0 0 C3 1 3 1 3 1 Z " fill="#FEFCFC" transform="translate(152,3)"/>
<path d="M0 0 C2 1 2 1 2 1 Z " fill="#FCFCFC" transform="translate(26,78)"/>
<path d="M0 0 C2 1 2 1 2 1 Z " fill="#FCFCFC" transform="translate(20,78)"/>
<path d="M0 0 C2 1 2 1 2 1 Z " fill="#FCFCFC" transform="translate(64,77)"/>
<path d="M0 0 C2 1 2 1 2 1 Z " fill="#FEFCFC" transform="translate(126,76)"/>
<path d="M0 0 C2 1 2 1 2 1 Z " fill="#FCFCFC" transform="translate(86,76)"/>
<path d="M0 0 C2 1 2 1 2 1 Z " fill="#FCFCFC" transform="translate(88,75)"/>
<path d="" fill="#FEFEFE" transform="translate(0,0)"/>
<path d="M0 0 C2 1 2 1 2 1 Z " fill="#FEFDFD" transform="translate(120,73)"/>
<path d="" fill="#FDFDFD" transform="translate(0,0)"/>
<path d="M0 0 C2 1 2 1 2 1 Z " fill="#FEFDFD" transform="translate(253,70)"/>
<path d="M0 0 C2 1 2 1 2 1 Z " fill="#FEFCFC" transform="translate(237,70)"/>
<path d="M0 0 C2 1 2 1 2 1 Z " fill="#FEFEFE" transform="translate(308,69)"/>
<path d="M0 0 C2 1 2 1 2 1 Z " fill="#FDFDFD" transform="translate(264,69)"/>
<path d="M0 0 C2 1 2 1 2 1 Z " fill="#FDFBFB" transform="translate(218,69)"/>
<path d="M0 0 C2 1 2 1 2 1 Z " fill="#FEFDFD" transform="translate(201,69)"/>
<path d="" fill="#FEFEFE" transform="translate(0,0)"/>
<path d="" fill="#FDFDFD" transform="translate(0,0)"/>
<path d="" fill="#FAFAFA" transform="translate(0,0)"/>
<path d="" fill="#FDFDFD" transform="translate(0,0)"/>
<path d="" fill="#FEFEFE" transform="translate(0,0)"/>
<path d="" fill="#FDFDFD" transform="translate(0,0)"/>
<path d="" fill="#FEFDFD" transform="translate(0,0)"/>
<path d="" fill="#FDFDFD" transform="translate(0,0)"/>
<path d="" fill="#FEFEFE" transform="translate(0,0)"/>
<path d="" fill="#FEFDFD" transform="translate(0,0)"/>
<path d="" fill="#FDFBFB" transform="translate(0,0)"/>
<path d="" fill="#FDFCFC" transform="translate(0,0)"/>
<path d="" fill="#FEFDFD" transform="translate(0,0)"/>
<path d="" fill="#FEFDFD" transform="translate(0,0)"/>
<path d="" fill="#FEFDFD" transform="translate(0,0)"/>
<path d="" fill="#FEFDFD" transform="translate(0,0)"/>
<path d="" fill="#FEFEFE" transform="translate(0,0)"/>
<path d="" fill="#FEFEFE" transform="translate(0,0)"/>
<path d="" fill="#F8F8F8" transform="translate(0,0)"/>
<path d="" fill="#FBFBFB" transform="translate(0,0)"/>
<path d="" fill="#FEFDFD" transform="translate(0,0)"/>
<path d="" fill="#FEFDFD" transform="translate(0,0)"/>
<path d="M0 0 C2 1 2 1 2 1 Z " fill="#FFFFFF" transform="translate(286,52)"/>
<path d="M0 0 C2 1 2 1 2 1 Z " fill="#FDFDFD" transform="translate(308,51)"/>
<path d="" fill="#FEFCFC" transform="translate(0,0)"/>
<path d="M0 0 C2 1 2 1 2 1 Z " fill="#FFFEFE" transform="translate(163,49)"/>
<path d="M0 0 C2 1 2 1 2 1 Z " fill="#FBFBFB" transform="translate(72,48)"/>
<path d="M0 0 C2 1 2 1 2 1 Z " fill="#FDFDFD" transform="translate(216,47)"/>
<path d="" fill="#FCFCFC" transform="translate(0,0)"/>
<path d="M0 0 C2 1 2 1 2 1 Z " fill="#FFFFFF" transform="translate(281,46)"/>
<path d="M0 0 C2 1 2 1 2 1 Z " fill="#FFFFFF" transform="translate(269,46)"/>
<path d="M0 0 C2 1 2 1 2 1 Z " fill="#FFFFFF" transform="translate(246,46)"/>
<path d="M0 0 C2 1 2 1 2 1 Z " fill="#FEFCFC" transform="translate(207,46)"/>
<path d="M0 0 C2 1 2 1 2 1 Z " fill="#FEFDFD" transform="translate(173,46)"/>
<path d="" fill="#FDFDFD" transform="translate(0,0)"/>
<path d="M0 0 C2 1 2 1 2 1 Z " fill="#FCFCFC" transform="translate(65,45)"/>
<path d="" fill="#FAFAFA" transform="translate(0,0)"/>
<path d="M0 0 C2 1 2 1 2 1 Z " fill="#FCFCFC" transform="translate(63,44)"/>
<path d="" fill="#FEFEFE" transform="translate(0,0)"/>
<path d="" fill="#FDFDFD" transform="translate(0,0)"/>
<path d="" fill="#FEFEFE" transform="translate(0,0)"/>
<path d="" fill="#FEFEFE" transform="translate(0,0)"/>
<path d="" fill="#FEFEFE" transform="translate(0,0)"/>
<path d="" fill="#FEFEFE" transform="translate(0,0)"/>
<path d="" fill="#F8F8F8" transform="translate(0,0)"/>
<path d="M0 0 C2 1 2 1 2 1 Z " fill="#FEFDFD" transform="translate(210,32)"/>
<path d="" fill="#FEFCFC" transform="translate(0,0)"/>
<path d="M0 0 C2 1 2 1 2 1 Z " fill="#FCFCFC" transform="translate(300,30)"/>
<path d="M0 0 C2 1 2 1 2 1 Z " fill="#FEFCFC" transform="translate(202,30)"/>
<path d="M0 0 C2 1 2 1 2 1 Z " fill="#FDFDFD" transform="translate(216,29)"/>
<path d="" fill="#FEFDFD" transform="translate(0,0)"/>
<path d="" fill="#FEFDFD" transform="translate(0,0)"/>
<path d="" fill="#FEFCFC" transform="translate(0,0)"/>
<path d="M0 0 C2 1 2 1 2 1 Z " fill="#FCFCFC" transform="translate(92,25)"/>
<path d="M0 0 C2 1 2 1 2 1 Z " fill="#FDFDFD" transform="translate(87,25)"/>
<path d="" fill="#FBFBFB" transform="translate(0,0)"/>
<path d="M0 0 C2 1 2 1 2 1 Z " fill="#FEFDFD" transform="translate(172,24)"/>
<path d="" fill="#FEFDFD" transform="translate(0,0)"/>
<path d="" fill="#FEFDFD" transform="translate(0,0)"/>
<path d="" fill="#FEFCFC" transform="translate(0,0)"/>
<path d="" fill="#FEFEFE" transform="translate(0,0)"/>
<path d="" fill="#FEFDFD" transform="translate(0,0)"/>
<path d="" fill="#FDFDFD" transform="translate(0,0)"/>
<path d="" fill="#FBFBFB" transform="translate(0,0)"/>
<path d="" fill="#FEFEFE" transform="translate(0,0)"/>
<path d="" fill="#FDFDFD" transform="translate(0,0)"/>
<path d="" fill="#FDFDFD" transform="translate(0,0)"/>
<path d="" fill="#FEFEFE" transform="translate(0,0)"/>
<path d="" fill="#FEFEFE" transform="translate(0,0)"/>
<path d="" fill="#FBFBFB" transform="translate(0,0)"/>
<path d="" fill="#FDFDFD" transform="translate(0,0)"/>
<path d="" fill="#FEFEFE" transform="translate(0,0)"/>
<path d="M0 0 C2 1 2 1 2 1 Z " fill="#FEFCFC" transform="translate(155,4)"/>
<path d="M0 0 C2 1 2 1 2 1 Z " fill="#FCFCFC" transform="translate(88,4)"/>
<path d="M0 0 C2 1 2 1 2 1 Z " fill="#FCFCFC" transform="translate(86,3)"/>
<path d="" fill="#FCFCFC" transform="translate(0,0)"/>
<path d="" fill="#FDFDFD" transform="translate(0,0)"/>
<path d="" fill="#FFFFFF" transform="translate(0,0)"/>
<path d="" fill="#FEFEFE" transform="translate(0,0)"/>
<path d="" fill="#FCFCFC" transform="translate(0,0)"/>
<path d="" fill="#FDFCFC" transform="translate(0,0)"/>
<path d="" fill="#FCFCFC" transform="translate(0,0)"/>
<path d="" fill="#FCFBFB" transform="translate(0,0)"/>
<path d="" fill="#FBFBFB" transform="translate(0,0)"/>
<path d="" fill="#FEFDFD" transform="translate(0,0)"/>
<path d="" fill="#FEFDFD" transform="translate(0,0)"/>
<path d="" fill="#FEFCFC" transform="translate(0,0)"/>
<path d="" fill="#FCFCFC" transform="translate(0,0)"/>
<path d="" fill="#FCFCFC" transform="translate(0,0)"/>
<path d="" fill="#FDFBFB" transform="translate(0,0)"/>
<path d="" fill="#FDFCFC" transform="translate(0,0)"/>
<path d="" fill="#FDFDFD" transform="translate(0,0)"/>
<path d="" fill="#FEFCFC" transform="translate(0,0)"/>
<path d="" fill="#FDFBFB" transform="translate(0,0)"/>
<path d="" fill="#FDFBFB" transform="translate(0,0)"/>
<path d="" fill="#FEFCFC" transform="translate(0,0)"/>
<path d="" fill="#FEFDFD" transform="translate(0,0)"/>
<path d="" fill="#FEFCFC" transform="translate(0,0)"/>
<path d="" fill="#FDFBFB" transform="translate(0,0)"/>
<path d="" fill="#FCFCFC" transform="translate(0,0)"/>
<path d="" fill="#FDFDFD" transform="translate(0,0)"/>
<path d="" fill="#FEFDFD" transform="translate(0,0)"/>
<path d="" fill="#FDFCFC" transform="translate(0,0)"/>
<path d="" fill="#FDFCFC" transform="translate(0,0)"/>
<path d="" fill="#FDFCFC" transform="translate(0,0)"/>
<path d="" fill="#FCFCFC" transform="translate(0,0)"/>
<path d="" fill="#FEFCFC" transform="translate(0,0)"/>
<path d="" fill="#FEFCFC" transform="translate(0,0)"/>
<path d="" fill="#FEFCFC" transform="translate(0,0)"/>
<path d="" fill="#FEFCFC" transform="translate(0,0)"/>
<path d="" fill="#FEFCFC" transform="translate(0,0)"/>
<path d="" fill="#FEFCFC" transform="translate(0,0)"/>
<path d="" fill="#FEFCFC" transform="translate(0,0)"/>
<path d="" fill="#F9F9F9" transform="translate(0,0)"/>
<path d="" fill="#FBFBFB" transform="translate(0,0)"/>
<path d="" fill="#FEFCFC" transform="translate(0,0)"/>
<path d="" fill="#FBFBFB" transform="translate(0,0)"/>
<path d="" fill="#FAFAFA" transform="translate(0,0)"/>
<path d="" fill="#FDFBFB" transform="translate(0,0)"/>
<path d="" fill="#FEFCFC" transform="translate(0,0)"/>
<path d="" fill="#FFFEFE" transform="translate(0,0)"/>
<path d="" fill="#FEFCFC" transform="translate(0,0)"/>
<path d="" fill="#FDFCFC" transform="translate(0,0)"/>
<path d="" fill="#FEFDFD" transform="translate(0,0)"/>
<path d="" fill="#FEFBFB" transform="translate(0,0)"/>
<path d="" fill="#FDFDFD" transform="translate(0,0)"/>
<path d="" fill="#FFFEFE" transform="translate(0,0)"/>
<path d="" fill="#FDFBFB" transform="translate(0,0)"/>
<path d="" fill="#FDFBFB" transform="translate(0,0)"/>
<path d="" fill="#FCFCFC" transform="translate(0,0)"/>
<path d="" fill="#FDFDFD" transform="translate(0,0)"/>
<path d="" fill="#FAFAFA" transform="translate(0,0)"/>
<path d="" fill="#FEFEFE" transform="translate(0,0)"/>
<path d="" fill="#FFFFFF" transform="translate(0,0)"/>
<path d="" fill="#FFFEFE" transform="translate(0,0)"/>
<path d="" fill="#FBFBFB" transform="translate(0,0)"/>
<path d="" fill="#FDFDFD" transform="translate(0,0)"/>
<path d="" fill="#FEFEFE" transform="translate(0,0)"/>
<path d="" fill="#FEFEFE" transform="translate(0,0)"/>
<path d="" fill="#FCFCFC" transform="translate(0,0)"/>
<path d="" fill="#FBFBFB" transform="translate(0,0)"/>
<path d="" fill="#FBFBFB" transform="translate(0,0)"/>
<path d="" fill="#FBFBFB" transform="translate(0,0)"/>
<path d="" fill="#FBFBFB" transform="translate(0,0)"/>
<path d="" fill="#FCFCFC" transform="translate(0,0)"/>
<path d="" fill="#FEFCFC" transform="translate(0,0)"/>
<path d="" fill="#FCFBFB" transform="translate(0,0)"/>
<path d="" fill="#FCFCFC" transform="translate(0,0)"/>
<path d="" fill="#FBFBFB" transform="translate(0,0)"/>
<path d="" fill="#FEFCFC" transform="translate(0,0)"/>
<path d="" fill="#FEFEFE" transform="translate(0,0)"/>
<path d="" fill="#FEFCFC" transform="translate(0,0)"/>
<path d="" fill="#FBFBFB" transform="translate(0,0)"/>
<path d="" fill="#FFFEFE" transform="translate(0,0)"/>
<path d="" fill="#FCFCFC" transform="translate(0,0)"/>
<path d="" fill="#FEFEFE" transform="translate(0,0)"/>
<path d="" fill="#FEFCFC" transform="translate(0,0)"/>
<path d="" fill="#FEFDFD" transform="translate(0,0)"/>
<path d="" fill="#FEFDFD" transform="translate(0,0)"/>
<path d="" fill="#FEFDFD" transform="translate(0,0)"/>
<path d="" fill="#FDFDFD" transform="translate(0,0)"/>
<path d="" fill="#FEFDFD" transform="translate(0,0)"/>
<path d="" fill="#FDFDFD" transform="translate(0,0)"/>
<path d="" fill="#FDFBFB" transform="translate(0,0)"/>
<path d="" fill="#FDFAFA" transform="translate(0,0)"/>
<path d="" fill="#FCFBFB" transform="translate(0,0)"/>
<path d="" fill="#FDFDFD" transform="translate(0,0)"/>
<path d="" fill="#FDFBFB" transform="translate(0,0)"/>
<path d="" fill="#FDFBFB" transform="translate(0,0)"/>
<path d="" fill="#FFFFFF" transform="translate(0,0)"/>
<path d="" fill="#FEFEFE" transform="translate(0,0)"/>
<path d="" fill="#FFFFFF" transform="translate(0,0)"/>
<path d="" fill="#FEFCFC" transform="translate(0,0)"/>
<path d="" fill="#FCFCFC" transform="translate(0,0)"/>
<path d="" fill="#FBFBFB" transform="translate(0,0)"/>
<path d="" fill="#FEFEFE" transform="translate(0,0)"/>
<path d="" fill="#FEFDFD" transform="translate(0,0)"/>
<path d="" fill="#FDFDFD" transform="translate(0,0)"/>
<path d="" fill="#FEFCFC" transform="translate(0,0)"/>
<path d="" fill="#FEFCFC" transform="translate(0,0)"/>
<path d="" fill="#FAFAFA" transform="translate(0,0)"/>
<path d="" fill="#FFFFFF" transform="translate(0,0)"/>
<path d="" fill="#FEFEFE" transform="translate(0,0)"/>
<path d="" fill="#FEFDFD" transform="translate(0,0)"/>
<path d="" fill="#FEFCFC" transform="translate(0,0)"/>
<path d="" fill="#FEFEFE" transform="translate(0,0)"/>
<path d="" fill="#FBFBFB" transform="translate(0,0)"/>
<path d="" fill="#FBFBFB" transform="translate(0,0)"/>
<path d="" fill="#FEFDFD" transform="translate(0,0)"/>
<path d="" fill="#FEFCFC" transform="translate(0,0)"/>
<path d="" fill="#FBFBFB" transform="translate(0,0)"/>
<path d="" fill="#FEFDFD" transform="translate(0,0)"/>
<path d="" fill="#FDFCFC" transform="translate(0,0)"/>
<path d="" fill="#FDFDFD" transform="translate(0,0)"/>
<path d="" fill="#FEFEFE" transform="translate(0,0)"/>
<path d="" fill="#FDFDFD" transform="translate(0,0)"/>
<path d="" fill="#FEFCFC" transform="translate(0,0)"/>
<path d="" fill="#FCFCFC" transform="translate(0,0)"/>
<path d="" fill="#FDFDFD" transform="translate(0,0)"/>
<path d="" fill="#FDFDFD" transform="translate(0,0)"/>
<path d="" fill="#FEFCFC" transform="translate(0,0)"/>
<path d="" fill="#FCFCFC" transform="translate(0,0)"/>
<path d="" fill="#FEFEFE" transform="translate(0,0)"/>
<path d="" fill="#FCFCFC" transform="translate(0,0)"/>
<path d="" fill="#FEFCFC" transform="translate(0,0)"/>
<path d="" fill="#FEFCFC" transform="translate(0,0)"/>
<path d="" fill="#FDFDFD" transform="translate(0,0)"/>
<path d="" fill="#FDFDFD" transform="translate(0,0)"/>
<path d="" fill="#FDFDFD" transform="translate(0,0)"/>
<path d="" fill="#FEFEFE" transform="translate(0,0)"/>
</svg>
