<?xml version="1.0" encoding="UTF-8"?>
<svg id="_圖層_1" data-name="圖層_1" xmlns="http://www.w3.org/2000/svg" version="1.1" xmlns:xlink="http://www.w3.org/1999/xlink" viewBox="0 0 200 64">
  <!-- Generator: Adobe Illustrator 30.0.0, SVG Export Plug-In . SVG Version: 2.1.1 Build 123)  -->
  <defs>
    <style>
      .st0 {
        fill: url(#_未命名漸層);
      }

      .st1 {
        fill: url(#_未命名漸層_2);
      }

      .st2 {
        fill: none;
      }

      .st3 {
        fill: #e2c38e;
      }

      .st4 {
        clip-path: url(#clippath);
      }
    </style>
    <clipPath id="clippath">
      <rect class="st2" width="200" height="64"/>
    </clipPath>
    <linearGradient id="_未命名漸層" data-name="未命名漸層" x1="6" y1="38.5" x2="44.1" y2="76.3" gradientTransform="translate(0 66) scale(1 -1)" gradientUnits="userSpaceOnUse">
      <stop offset="0" stop-color="#bf9771"/>
      <stop offset="1" stop-color="#e0bd8b"/>
    </linearGradient>
    <linearGradient id="_未命名漸層_2" data-name="未命名漸層 2" x1="0" y1="36.2" x2="62.3" y2="36.2" gradientTransform="translate(0 66) scale(1 -1)" gradientUnits="userSpaceOnUse">
      <stop offset="0" stop-color="#bf9771"/>
      <stop offset="1" stop-color="#e0bd8b"/>
    </linearGradient>
  </defs>
  <g class="st4">
    <g>
      <path class="st3" d="M85,17.8c1.2-.3,1.3-.6,1.3-1.6V8c0-1.1-.1-1.5-1.3-1.7,0,0,0,0,0,0,.5,0,1.2,0,1.9,0h6.3c0,0,.1,0,.1,0,0,1,0,1.9.1,2.8,0,0,0,0,0,0-.2-1.6-1.4-2.8-3.1-2.8h-1.7c-.5,0-.9.2-.9.7v4.5h1.3c1.4,0,2.2-.8,2.2-2.1s0,0,0,0c0,1.6,0,3,0,4.5,0,0,0,0,0,0,0-1.5-.9-2.3-2.2-2.4h-1.3s0,4.5,0,4.5c0,.9.5,1.6,1.2,1.6h1.9c1.6,0,2.9-1.4,3.1-3.1,0,0,0,0,0,0,0,1.1-.1,2.1-.1,3.1,0,0,0,0-.1,0h-4.4c-.8,0-1.6,0-2.4-.1-.9,0-1.4,0-1.9.1,0,0,0,0,0,0h0Z"/>
      <path class="st3" d="M96,17.7c.8,0,.9-.6.9-1.6v-3.4c0-1-.2-1.8-1-1.8s0,0,0,0h.6c.3,0,1.3,0,1.6-.3,0,0,0,0,0,0,0,.3,0,.8,0,1.6v1.4h0c.2-2.1,1.3-3,2.6-3s1.7.4,1.7,1.2v4.2c0,1,.1,1.5.9,1.6,0,0,0,0,0,0-.5,0-.9,0-1.3,0-.6,0-1.1,0-1.6,0,0,0,0,0,0,0,.8,0,.9-.6.9-1.6v-3.8c0-.9-.5-1.3-1.1-1.3-1,0-1.9,1.2-1.9,3.2v1.8c0,1,0,1.6,1.1,1.6,0,0,0,0,0,0-.5,0-1,0-1.7,0s-1,0-1.4,0c0,0,0,0,0,0h0Z"/>
      <path class="st3" d="M105.2,14.6c0-2.2,1.2-4,3.1-4s1.7.7,2,1.8h0v-5c0-1-.2-1.8-1-1.8s0,0,0,0h.6c.3,0,1.4,0,1.6-.3,0,0,0,0,0,0,0,.3,0,.8,0,1.6v9c0,1,.2,1.8,1,1.8s0,0,0,0h-.6c-.4,0-1.3,0-1.6.2,0,0,0,0,0,0,.1-.3.1-.8.1-1.5v-1.2h0c0,1.4-1.1,2.8-2.4,2.8s-2.8-1.6-2.8-3.4h0ZM110.3,15v-1.8c0-1.3-.7-2.5-1.9-2.5s-1.9,1.3-1.9,3.5.6,3.4,1.8,3.4,2-1.3,2-2.6h0Z"/>
      <path class="st3" d="M114.5,14.6c0-2,1.4-4,3.3-4s2.2.7,2.2,1.8-.2.7-.6.7h-3.6c0,.2,0,.4,0,.7,0,2.3,1.1,3.5,2.7,3.5s1.6-.4,1.7-1.4c0,0,0,0,0,0-.1,1.2-1.2,2.1-2.6,2.1s-3.1-1.6-3.1-3.4h0ZM115.8,13.1c.8,0,1.7,0,2.5,0,.5,0,.6-.3.6-.6,0-.8-.3-1.7-1.2-1.7s-1.8,1-1.9,2.4Z"/>
      <path class="st3" d="M122.4,16.3c0-1.3,1.5-2.5,3-2.5s.6,0,.9.2c0-.4,0-.7,0-1.1.1-1.5-.7-2.3-1.8-2.3s-.8,0-.9.3c0,1-.3,1.5-.7,1.5s-.5-.2-.5-.6c0-.9,1.1-1.3,2-1.3,1.4,0,3.2.7,3,2.2-.1.9-.2,2.8-.2,3.6s.2,1.1.5,1.1.6-.2.7-.7c0,0,0,0,0,0,0,.5-.5,1-1.1,1s-1.2-.5-1.3-1.3h0c-.6.8-1.4,1.3-2.1,1.3s-1.6-.7-1.6-1.6h0ZM124.7,17.4c.5,0,1-.3,1.4-.8,0-.7,0-1.6,0-2.5-.2-.1-.5-.2-.7-.2-1.2,0-1.8,1-1.8,2.1s.3,1.4,1.1,1.4h0Z"/>
      <path class="st3" d="M130.5,12.1c-.2-.5-.5-1.2-.9-1.2,0,0,0,0,0,0,.4,0,1,0,1.5,0s1.1,0,1.5,0c0,0,0,0,0,0-1,0-1.1.4-.8,1l1.9,4.4h0l1.5-4c.3-.9,0-1.4-.6-1.5,0,0,0,0,0,0,.3,0,.7,0,1.1,0s.6,0,.8,0c0,0,0,0,0,0-.4,0-.7.7-1,1.5l-2.3,5.4s0,0,0,0l-2.5-5.7h0Z"/>
      <path class="st3" d="M137.8,14.3c0-1.8,1.5-3.7,3.3-3.7s3.2,1.7,3.2,3.6-1.5,3.7-3.3,3.7-3.2-1.8-3.2-3.7ZM143,14.4c0-2.1-.7-3.7-2-3.7s-2,1.3-2,3.5.7,3.8,2,3.8,1.9-1.3,1.9-3.5Z"/>
      <path class="st3" d="M146.4,17.7c.8,0,.9-.6.9-1.6v-3.4c0-1-.2-1.8-1-1.8s0,0,0,0h.6c.3,0,1.3,0,1.6-.3,0,0,0,0,0,0,0,.3,0,.8,0,1.6v1.4h0c.1-2.1,1-3,2-3s1,.5,1,1-.3.7-.6.7-.7-.4-.6-1.2c0,0-.2-.1-.3-.1-.8,0-1.6,1.2-1.6,3.2v1.8c0,1,0,1.6,1.1,1.6,0,0,0,0,0,0-.5,0-1,0-1.7,0s-1,0-1.4,0c0,0,0,0,0,0h0Z"/>
      <path class="st3" d="M85.3,31c0-3.3,2.5-6,5.2-6s2.2.6,2.9,1.3l.6-.9s0,0,0,0c0,1,0,2,0,3,0,0,0,0,0,0-.4-2.1-1.7-3.3-3.5-3.3s-3.5,2.7-3.5,5.9,1,6,3.7,6,2.5-.9,2.5-2.8h0c0-1.1-.1-1.6-1.4-1.7,0,0,0,0,0,0,.6,0,1.3,0,2,0h.3c.5,0,1,0,1.6,0,0,0,0,0,0,0-1.1,0-1.2.6-1.2,1.7v2.1s0,0,0,0h-.7c-.7-.1-1.4.8-3.1.8-2.8,0-5.4-2.7-5.4-6h0Z"/>
      <path class="st3" d="M97.4,36.7c.8,0,.9-.6.9-1.6v-8.7c0-1-.2-1.8-1-1.8s0,0,0,0h.6c.3,0,1.4,0,1.6-.3,0,0,0,0,0,0,0,.3,0,.8,0,1.6v9.1c0,1,0,1.6.9,1.6,0,0,0,0,0,0-.5,0-.9,0-1.5,0s-1,0-1.4,0c0,0,0,0,0,0h0Z"/>
      <path class="st3" d="M102.4,33.4c0-1.8,1.5-3.7,3.3-3.7s3.2,1.7,3.2,3.6-1.5,3.7-3.3,3.7-3.2-1.8-3.2-3.7ZM107.6,33.4c0-2.1-.7-3.7-2-3.7s-2,1.3-2,3.5.7,3.8,2,3.8,1.9-1.3,1.9-3.5Z"/>
      <path class="st3" d="M113.1,35.2h0v1.4c0,0,0,.1,0,.1h-.1c-.7,0-1.3,0-1.8,0,0,0,0,0,0,0,.8,0,.9-.6.9-1.6v-8.7c0-1-.2-1.8-1-1.8s0,0,0,0h.6c.3,0,1.4,0,1.6-.3,0,0,0,0,0,0,0,.3,0,.8,0,1.6v6.5c0,0,0,0,0,0,0-1.4,1.1-2.8,2.4-2.8s2.8,1.6,2.8,3.4-1.2,4-3.1,4-1.7-.7-2-1.8h0ZM116.8,33.4c0-2-.6-3.4-1.8-3.4s-2,1.3-2,2.6v1.8c0,1.3.7,2.5,1.9,2.5s1.9-1.3,1.9-3.5h0Z"/>
      <path class="st3" d="M120.5,35.4c0-1.3,1.5-2.5,3-2.5s.6,0,.9.2c0-.4,0-.7,0-1.1.1-1.5-.7-2.3-1.8-2.3s-.8,0-.9.3c0,1-.3,1.5-.7,1.5s-.5-.2-.5-.6c0-.9,1.1-1.3,2-1.3,1.4,0,3.2.7,3,2.2-.1.9-.2,2.8-.2,3.6s.2,1.1.5,1.1.6-.2.7-.7c0,0,0,0,0,0,0,.5-.5,1-1.1,1s-1.2-.5-1.3-1.3h0c-.6.8-1.4,1.3-2.1,1.3s-1.6-.7-1.6-1.6h0ZM122.8,36.4c.5,0,1-.3,1.4-.8,0-.7,0-1.6,0-2.5-.2-.1-.5-.2-.7-.2-1.2,0-1.8,1-1.8,2.1s.3,1.4,1.1,1.4h0Z"/>
      <path class="st3" d="M128.3,36.7c.8,0,.9-.6.9-1.6v-8.7c0-1-.2-1.8-1-1.8s0,0,0,0h.6c.3,0,1.4,0,1.6-.3,0,0,0,0,0,0,0,.3,0,.8,0,1.6v9.1c0,1,0,1.6.9,1.6,0,0,0,0,0,0-.5,0-.9,0-1.5,0s-1,0-1.4,0c0,0,0,0,0,0h0Z"/>
      <path class="st3" d="M136.5,36.7c.8-.2,1.3-1.2,1.7-2.3l2.8-7.2.6-2c0,0,.2,0,.2,0l3.9,9.7c.3.8.7,1.8,1.5,1.8,0,0,0,0,0,0-1.1,0-2.9,0-4,0,0,0,0,0,0,0,1.3,0,1.4-.5,1-1.6l-1.1-2.8h-4s-.8,2.1-.8,2.1c-.5,1.3,0,2.2,1.1,2.3,0,0,0,0,0,0-.7,0-2.1,0-2.9,0,0,0,0,0,0,0h0ZM139.2,32.3h3.9l-2-5.1h0l-1.9,5.1Z"/>
      <path class="st3" d="M148.7,33.7c0-2.2,1.2-4,3.1-4s1.7.7,2,1.8h0v-5c0-1-.2-1.8-1-1.8s0,0,0,0h.6c.3,0,1.4,0,1.6-.3,0,0,0,0,0,0,0,.3,0,.8,0,1.6v9c0,1,.2,1.8,1,1.8s0,0,0,0h-.6c-.4,0-1.3,0-1.6.2,0,0,0,0,0,0,.1-.3.1-.8.1-1.5v-1.2h0c0,1.4-1.1,2.8-2.4,2.8s-2.8-1.6-2.8-3.4h0ZM153.8,34.1v-1.8c0-1.3-.7-2.5-1.9-2.5s-1.9,1.3-1.9,3.5.6,3.4,1.8,3.4,2-1.3,2-2.6h0Z"/>
      <path class="st3" d="M158.3,31.2c-.2-.5-.5-1.2-.9-1.2,0,0,0,0,0,0,.4,0,1,0,1.5,0s1.1,0,1.5,0c0,0,0,0,0,0-1,0-1.1.4-.8,1l1.9,4.4h0l1.5-4c.3-.9,0-1.4-.6-1.5,0,0,0,0,0,0,.3,0,.7,0,1.1,0s.6,0,.8,0c0,0,0,0,0,0-.4,0-.7.7-1,1.5l-2.3,5.4s0,0,0,0l-2.5-5.7h0Z"/>
      <path class="st3" d="M165.9,36.7c.8,0,.9-.6.9-1.6v-3.4c0-1-.2-1.8-1-1.8s0,0,0,0h.6c.3,0,1.4,0,1.6-.3,0,0,0,0,0,0,0,.3,0,.8,0,1.6v3.8c0,1,0,1.6.9,1.6,0,0,0,0,0,0-.5,0-.9,0-1.5,0s-1,0-1.4,0c0,0,0,0,0,0h0ZM166.6,26.3c0-.6.4-1,.8-1s.8.4.8,1-.4.9-.8.9-.8-.3-.8-.9Z"/>
      <path class="st3" d="M171.4,36.2l-.4.6s0,0,0,0c0-.7,0-1.3,0-2,0,0,0,0,0,0,.2,1.2.8,2.2,2.1,2.2s1.6-.6,1.6-1.6-.7-1.3-1.9-1.7c-1.3-.4-1.8-1-1.8-2s1-1.9,2.1-1.9,1.2.3,1.5.7l.4-.5s0,0,0,0c0,.6,0,1.2,0,1.8,0,0,0,0,0,0-.3-1.3-1-1.9-1.9-1.9s-1.2.5-1.2,1.3.6,1.2,1.6,1.4c1.2.3,2.1.9,2.1,2.2s-1.1,2.3-2.6,2.3-1.3-.4-1.7-.8h0Z"/>
      <path class="st3" d="M177.9,33.4c0-1.8,1.5-3.7,3.3-3.7s3.2,1.7,3.2,3.6-1.5,3.7-3.3,3.7-3.2-1.8-3.2-3.7ZM183.1,33.4c0-2.1-.7-3.7-2-3.7s-2,1.3-2,3.5.7,3.8,2,3.8,2-1.3,2-3.5Z"/>
      <path class="st3" d="M186.5,36.7c.8,0,.9-.6.9-1.6v-3.4c0-1-.2-1.8-1-1.8s0,0,0,0h.6c.3,0,1.3,0,1.6-.3,0,0,0,0,0,0,0,.3,0,.8,0,1.6v1.4h0c.1-2.1,1-3,2-3s1,.5,1,1-.2.7-.6.7-.7-.4-.6-1.2c0,0-.2-.1-.3-.1-.8,0-1.6,1.2-1.6,3.2v1.8c0,1,0,1.6,1.1,1.6,0,0,0,0,0,0-.5,0-1,0-1.7,0s-1,0-1.4,0c0,0,0,0,0,0h0Z"/>
      <path class="st3" d="M193.9,41c0-.4.3-.9,1.5-.9l1.2-3-2.5-6c-.2-.5-.5-1.2-.9-1.2,0,0,0,0,0,0,.4,0,.9,0,1.5,0s1.1,0,1.5,0c0,0,0,0,0,0-1,0-1.1.4-.8,1l1.9,4.6h0l1.5-4.1c.3-.9,0-1.4-.8-1.5,0,0,0,0,0,0,.3,0,.8,0,1.2,0s.6,0,.8,0c0,0,0,0,0,0-.4,0-.7.7-1,1.5l-2.1,5.3-1.3,3.5c-.2.6-.5,1.1-1.1,1.1s-.5-.3-.5-.5h0Z"/>
      <path class="st3" d="M86.5,49.7h1.2c.1,0,.2,0,.2,0,0-.1.1-.3.2-.4,0-.1.2-.1.3,0,.4.2.8.4,1.1.6.1,0,.2.2.2.3,0,0,0,.2-.2.3-.1,0-.2.2-.2.3-.2,1.4-.6,2.6-1.3,3.7-.7,1.2-1.5,2-2.3,2.5-.1,0-.2,0-.2,0,0,0,0-.1,0-.2.7-.7,1.2-1.5,1.6-2.6.4-1,.6-2.2.7-3.6,0-.1,0-.2,0-.2,0,0,0,0-.1,0h-2c-.1.1-.2.1-.2,0,0-.1,0-.3-.1-.5,0,0,0,0,.1,0h.9c0,0,0,0,0,0ZM94.4,51.9c.7,1.8,1.8,3.1,3.1,3.9,0,0,0,0,0,.1,0,0,0,0-.2,0-.2,0-.4.1-.7.3-.3.2-.5.4-.6.7,0,.1-.1.1-.2,0-1.7-1.7-2.5-4.9-2.4-9.5-.3,0-.6.2-.9.3t0,0c0,.1-.1.2-.3.3,0,0-.1,0-.1.1v2c.1-.2.3-.4.5-.6,0,0,.1,0,.2,0,.2.2.3.4.5.6,0,0,0,.2,0,.3,0,0,0,.1-.2.1h-1v1.5h0s.2-.2.6-.6c0,0,.1,0,.2,0,.2.2.3.4.5.6,0,0,0,.2,0,.3,0,0,0,.1-.2.1h-1.2v1.6h.2s.3-.2.6-.7c0,0,.1,0,.2,0,.2.2.4.4.6.7,0,0,0,.2,0,.3,0,0,0,.1-.2.1h-1.5v2.6c0,.3-.2.6-.5.9-.3.3-.7.4-1.3.4,0,0-.1,0-.2,0,0-.6-.4-1-1.2-1.2-.1,0-.1,0-.1-.2,0,0,0-.1.1-.1,1,0,1.5,0,1.6,0,0,0,.1-.2.1-.2v-2.1h-1.7c0,.1,0,.1-.1,0,0-.1,0-.3-.1-.5,0,0,0,0,.1,0h.9c0,0,.9,0,.9,0v-1.6h-1.3c0,.1,0,.1-.1,0,0-.1,0-.3-.1-.5,0,0,0,0,.1,0h.9c0,0,.5,0,.5,0v-1.5h-1c0,.1,0,.1-.1,0,0-.1,0-.3-.1-.5,0,0,0,0,.1,0h.9c0,0,.1,0,.1,0v-2.5c0,0,0-.1,0-.2,0,0,0-.1,0-.1.8,0,1.3.1,1.4.2.3-.2.5-.4.7-.5,0,0,.1-.1.1-.2,0,0,0,0-.1,0h-5c-.1.1-.2.1-.2,0,0-.1,0-.3-.1-.5,0,0,0,0,.1,0h.9c0,0,4.5,0,4.5,0,.1,0,.2,0,.2,0,.2-.2.3-.3.5-.5.1-.1.3-.2.4,0,.5.3.9.6,1.3,1,.1.1.2.3.1.4,0,.1-.2.2-.5.1-.6,0-1.1,0-1.6.1,0,1.6.2,3,.5,4.2.8-1,1.2-2,1.4-2.8,0,0,0,0,.1,0,.4.2.9.3,1.3.6.2,0,.2.2.2.3,0,0-.1.1-.3.1,0,0-.1,0-.1,0-.7.9-1.5,1.6-2.4,2h0Z"/>
      <path class="st3" d="M107.5,54.7v-1.9h-1.3c-.1.1-.2.1-.2,0,0-.1,0-.3-.1-.4,0,0,0,0,.1,0h.9c0,0,.4,0,.4,0,0,0,.1,0,.2-.1.1-.1.2-.3.4-.4,0,0,0,0,.2,0,.4.2.7.4,1.1.7,0,0,0,0,.1.1,0,0-.1.2-.3.5v2.1c0,.2,0,.4.3.6.5.4,1.3.6,2.4.7,2.6.1,4.6,0,6.1-.4,0,0,.1,0,.2,0,0,0,0,.1,0,.2-.3.2-.4.4-.6.7-.1.3-.2.6-.2.8,0,0,0,0,0,.1,0,0,0,0-.2,0-1.9,0-3.5,0-4.9,0-1.6-.2-2.7-.9-3.5-2.3,0-.1-.1-.2-.2-.2,0,0,0,0-.1.1-1.1,1.4-1.6,2.2-1.6,2.2,0,0,0,.1-.1.1,0,0-.1,0-.2-.1-.2-.3-.4-.7-.6-1.3,0,0,0-.1,0-.1.4-.2.8-.4,1.2-.7.3-.3.5-.5.5-.7v-.4h0ZM106.4,48.8s0,0,.1,0c.9,0,1.6.3,2,1,.1.3.2.5,0,.8,0,.3-.2.4-.5.5-.5.2-.9,0-1-.8,0-.7-.3-1.1-.8-1.4,0,0,0,0,0-.2h0ZM107,46.2c0,0,0,0,.1,0,0,0,.2,0,.4,0,.7,0,1.3.3,1.6.7.2.2.2.5.2.8,0,.3-.2.5-.4.6-.5.2-.9,0-1.1-.6-.2-.6-.4-1-.8-1.2,0,0,0,0,0-.1h0ZM112.5,47.5h-2.2c0,.2-.1.1-.1,0,0-.1,0-.3-.1-.5,0,0,0,0,.1,0h.9c0,0,1.4,0,1.4,0v-1.5s0,0,0,0c.5,0,1,0,1.4.2.2,0,.3.1.3.2,0,.1,0,.2-.2.2-.1,0-.2,0-.1.2v.7h.2c0,0,.2,0,.2-.1.2-.3.4-.6.7-.9,0,0,.2,0,.2,0,.5.3.8.7,1.1,1.1,0,0,0,.1,0,.2,0,0-.1,0-.2,0h-2.4v1.4h1.3c0,0,.2,0,.2-.1.2-.3.4-.6.7-.9,0,0,.2,0,.2,0,.5.3.8.7,1.2,1.1,0,0,0,.1,0,.2,0,0-.1,0-.2,0h-8c0,.2-.1.1-.1,0,0-.1,0-.3-.1-.5,0,0,0,0,.1,0h.9c0,0,2.4,0,2.4,0v-1.4h0ZM116.2,52.6s0,0,0-.1c0,0,0,0,.1,0,.4.2.7.4,1.1.6.2.1.2.2.2.3,0,0-.2.1-.3,0,0,0-.1,0-.2,0-.3.2-.6.3-.9.4,0,0-.1,0-.2,0,.6.3,1,.7,1.1,1.3,0,.3,0,.5-.2.6-.2.1-.3.2-.5.1-.2,0-.4-.2-.5-.3-.6-.8-1.3-1.4-2.1-1.9v2.1c0,.2-.1.4-.3.5-.3.1-.5,0-.8,0-.1,0-.2-.2-.2-.4v-1.8c-.8.8-1.7,1.2-2.7,1.4,0,0-.1,0-.1,0,0,0,0,0,0-.1,1.3-.7,2.2-1.7,2.6-3h-.8v.2c0,.2,0,.4-.2.5-.2.1-.4.2-.6.2-.2,0-.3,0-.4-.1,0,0,0-.1,0-.3v-3c0,0,0-.1,0-.1.4,0,.9.3,1.4.5h2.9s0,0,.1,0c0-.1.2-.2.3-.3,0,0,0,0,.1,0,.4.1.8.3,1.2.6.3.2.2.3,0,.5,0,0-.1.1-.1.2v1.3c0,.2,0,.3-.2.4-.1,0-.3.1-.6.1-.2,0-.3,0-.4-.1,0,0,0-.2,0-.4h-1v1c.5,0,1.1.2,1.6.4.4-.5.6-.9.8-1.2h0ZM114.8,52v-1.4c0,0,0,0-.1,0h-3.1v1.5h3.2Z"/>
      <path class="st3" d="M127.7,57.4c0,.3,0,.4-.2.5-.2.1-.4.2-.6.2s-.3,0-.4-.1c0,0-.1-.2-.1-.3v-11.4s0,0,0,0c0,0,0,0,.1,0,.3,0,.7.2,1,.4h.4s7.5,0,7.5,0c.1,0,.2,0,.3,0,.2-.2.3-.3.3-.4,0-.1.2-.1.3-.1.5.2.9.4,1.1.6.1,0,.2.2.2.3,0,.1-.1.2-.3.3,0,0-.1,0-.1.1v10.1c0,.2,0,.3-.2.4-.1,0-.3.1-.6.1-.2,0-.3,0-.4-.1,0,0,0-.1,0-.3v-.4h-8.2v.2h0ZM135.9,56.8v-9.9c0,0,0,0-.1,0h-8.1v9.9h8.3ZM134.9,48.3c.3.2.5.5.7.8,0,0,0,.2,0,.3,0,0,0,.1-.2.1h-2.1c.1,1.1.2,2,.3,2.6,0-.2.3-.9.6-1.9,0,0,0,0,.1,0,.4,0,.8.2,1.2.4.1,0,.2.2.2.3,0,0-.1.1-.3.1,0,0-.1,0-.2.1-.3,1-.7,1.8-1.2,2.6,0,.3.2.6.3.8,0,.2.1.2.2.2,0,0,.1,0,.2-.1.2-.3.4-.7.5-1.1,0,0,0-.1.2-.1,0,0,.1.1,0,.2,0,0,0,0,0,.1-.2.9-.2,1.6-.2,1.9.1.3.1.6,0,.8,0,.2-.2.2-.4.3-.2,0-.4,0-.7-.3-.5-.4-.8-1-1.1-1.6-.9.9-1.9,1.4-2.9,1.5,0,0-.1,0-.1,0,0,0,0-.1.2-.2.9-.4,1.8-1.2,2.5-2.3-.4-1.4-.6-2.8-.7-4.2h-4c0,.1,0,.1-.1,0,0-.1,0-.3-.1-.5,0,0,0,0,.1,0h.9c0,0,3.1,0,3.1,0,0-.9-.1-1.5-.2-1.8,0-.1,0-.1.1-.1.5,0,.9.1,1.3.2.2,0,.3,0,.3.2,0,0,0,.2-.2.3-.1,0-.1.5,0,1.2h.6c0,0,.2,0,.2,0,.1-.2.3-.4.5-.7,0,0,0,0,0,0,0,0-.2.1-.3.1-.2,0-.4,0-.5-.2,0-.1-.1-.3-.1-.4,0-.2-.1-.4-.2-.6,0,0,0,0,0-.1,0,0,0,0,.1,0,.3,0,.5,0,.8.1.2.1.4.2.5.4,0,.2,0,.5,0,.7,0,0,.1,0,.2,0h0ZM132,53.7c.1,0,.2,0,.2,0,0,0,0,.1,0,.2-.7.4-1.7.9-3,1.4-.1,0-.2.1-.2.2,0,.1,0,.2-.2.2-.1,0-.2,0-.3-.2-.1-.3-.2-.6-.3-1.1,0-.2,0-.2.1-.2,1,0,2.3-.2,3.8-.5h0ZM129.5,52.9c0,.2,0,.3-.2.4-.2.1-.4.2-.6.2-.2,0-.3,0-.4-.1,0,0,0-.2,0-.3v-2.8c0,0,0,0,0,0,.4,0,.8.2,1.2.4h.6s0,0,.1,0c0-.1.2-.2.3-.3,0,0,0,0,.1,0,.4.1.7.3,1.1.6.2.2.2.3,0,.5,0,0-.1,0-.1.2v1.5c0,.1,0,.3-.2.3-.1,0-.3.1-.6.1-.2,0-.3,0-.4-.1,0,0,0-.2,0-.3h-.8s0,0,0,0ZM130.4,52.6v-1.6s0,0-.1,0h-.7v1.7h.8Z"/>
      <path class="st3" d="M148.1,46.3s0,0,.1,0c0-.1.2-.3.3-.4,0,0,0,0,.2,0,.4.2.7.4,1.1.6.1,0,.2.2.2.3,0,.1,0,.2-.2.2-.1,0-.2.1-.3.3-.7,1.4-1.1,2.3-1.2,2.5-.2.3-.2.5,0,.5.6.5,1.1,1.1,1.5,1.9,1.6-1.5,2.6-3.1,3.1-5h-1.1c0,.2-.2.3-.2.5.4,0,.6.2.7.4,0,.2.1.3,0,.5,0,.2-.1.3-.3.4-.2,0-.4,0-.5-.1-.1-.1-.2-.2-.2-.4,0,0,0-.2-.1-.3-.1.2-.4.5-.7.9.1,0,.3,0,.4.2.2.1.4.3.5.5,0,.2,0,.3,0,.5,0,.2-.2.3-.4.3-.2,0-.4,0-.5-.2,0-.1-.1-.3-.1-.4,0,0,0-.2-.1-.5-.3.3-.7.5-1,.7,0,0,0,0-.1,0,0,0,0-.2.3-.5,1-1.3,1.5-2.6,1.5-3.7,0,0,0-.1.1-.1.4,0,.8.1,1.3.3.2,0,.3.1.3.3,0,.1,0,.2-.3.2,0,0-.2.1-.3.4h.9c0,0,0,0,.1,0,.1-.2.2-.3.4-.5,0,0,.1,0,.2,0,.3.2.6.4.9.6.3.3.2.5-.1.6.2.6.6,1.1,1.1,1.7.3-.6.6-1.3.8-1.9h-1c-.1.1-.2.1-.2.1,0-.2,0-.3-.1-.5,0,0,0,0,.1,0h.9c0,.1,0,.1,0,.1,0,0,.1,0,.2-.1.1-.1.3-.3.4-.4,0,0,.1,0,.2,0,.4.2.9.5,1.3.8,0,0,.1.2.1.3,0,0-.1.1-.3.1,0,0-.1,0-.2,0-.7.7-1.4,1.3-2,1.8.8.7,1.6,1.3,2.5,1.6,0,0,.1,0,.1.1s0,0-.1.1c-.3,0-.5.1-.7.3-.2.2-.4.4-.4.6,0,0-.1.1-.2,0-1.4-1-2.4-2.4-2.8-4.4-1.1,2.2-2.5,3.7-4.1,4.6.2.4.2.8.2,1.4h5.2c0,0,.2,0,.2-.1.2-.3.4-.6.7-.9,0,0,.2,0,.2,0,.5.3.8.7,1.2,1.1,0,0,0,.1,0,.2,0,0-.1,0-.2,0h-3.1v2.5c0,.4,0,.7-.2.9-.3.4-.8.7-1.5.7,0,0-.1,0-.1-.1,0-.5-.2-.9-.7-1.2,0,0-.1,0-.1-.1,0,0,0-.1.1,0,.4,0,.7,0,.9,0s.3-.1.3-.3v-2.3h-2.9c-.1.9-.5,1.4-1.1,1.7,0,0-.1,0-.2,0-.6.2-.9.2-.9,0,0-.5-.2-.9-.6-1.2v2.8c0,.3,0,.4-.2.5-.2.1-.4.2-.7.2s-.3,0-.4-.1c0,0-.1-.2-.1-.3v-11.9s0,0,0,0c0,0,0,0,.1,0,.4,0,.8.3,1.3.5h.7,0ZM147.3,54.3c.2,0,.4,0,.6,0,.3,0,.5,0,.6-.2,0,0,0-.1.1-.2.2-1,0-1.9-.6-2.9-.4-.6-.6-.9-.5-1,.4-1.1.6-2.3.8-3.4h-.9v7.7h0ZM150.7,54.8s0,0,0,0c.4.2.8.4,1.1.6.1,0,.2.2.1.3,0,0-.1.1-.3,0,0,0-.1,0-.1,0-1,1.1-2,1.9-3.2,2.3,0,0,0,0-.1,0,0,0,0,0,0-.1,1-.8,1.7-1.8,2.2-3,0,0,0-.1,0-.2h0ZM152.3,51.7h1.1c0,0,.2,0,.2-.1.2-.3.4-.6.6-.8,0,0,.1,0,.2,0,.4.3.8.6,1.1,1,0,0,0,.1,0,.2,0,0-.1,0-.2,0h-3.9c0,.2-.1.1-.1,0,0-.1,0-.3-.1-.5,0,0,0,0,.1,0h.9c0,0,0,0,0,0ZM155.2,55s0,0,.1,0c.3,0,.5.1.6.2.9.4,1.4.9,1.7,1.6.1.3.1.5,0,.8,0,.2-.2.4-.5.5,0,0,0,0,0,0-.5,0-.8-.2-.8-.8-.1-.9-.5-1.6-1.1-2,0,0,0,0,0-.1h0Z"/>
      <path class="st3" d="M170.3,56.2c0,0-.1,0-.1,0,0,0,0-.1,0-.1,1.7-1.2,2.8-2.7,3.3-4.4-.7.3-1.4.6-2,.7,0,0-.1,0-.1,0,0,0,0-.1,0-.1.5-.2,1.2-.7,2.1-1.4-.4,0-.5-.3-.6-.8,0-.3,0-.5-.2-.7,0,0,0,0,0,0-.6.7-1.3,1.3-2,1.7,0,0-.1,0-.1,0,0,0,0,0,0-.1.2-.2.3-.4.5-.6h-1.9v.6c.5.2.9.5,1.3.9.3.4.5.7.6,1,0,.3,0,.5,0,.8,0,.2-.2.4-.5.5-.2,0-.4,0-.6-.2-.1-.1-.2-.3-.3-.6,0-.6-.3-1.1-.6-1.6v6.2c0,.2-.1.4-.3.5-.3.1-.6,0-.9,0-.2,0-.2-.2-.2-.5v-4.9c-.2,1.4-.8,2.4-1.8,3,0,0-.1,0-.2,0,0,0,0,0,0-.2.8-1.5,1.5-3.3,1.9-5.5h-1.6c0,.1,0,.1-.1,0,0-.1,0-.3-.1-.5,0,0,0,0,.1,0h.9c0,0,.8,0,.8,0v-2.1c-.7.1-1.2.2-1.6.3,0,0-.1,0-.2,0,0,0,0-.1.1-.1,1.5-.6,2.7-1.2,3.4-1.9,0,0,.1,0,.2,0,.5.2.9.4,1.3.7.2,0,.2.2.2.3,0,0,0,0,0,0,0,0-.7.2-2,.6v2.4h.3c0,0,.1,0,.2-.1.1-.2.3-.5.5-.8,0-.1.2-.1.3,0,.4.3.7.6.8,1,.5-.8.9-1.7,1.2-2.5,0,0,.1-.6.3-1.5,0,0,0-.1.1-.1.5,0,.9.1,1.4.3.2,0,.3.2.3.3,0,.1-.1.2-.3.2,0,0-.2.3-.6,1h1.8c0,0,.1,0,.2-.1,0-.1.2-.3.4-.4,0,0,.1,0,.2,0,.3.2.6.5.9.7.1.1.2.2.2.3,0,.1-.1.2-.3.2,0,0-.1,0-.2.1-.6,1.1-1.4,2-2.6,2.7.3,0,.6.1.8.2.2,0,.3.2.3.3,0,.1-.1.2-.2.2-.1,0-.2,0-.2.2-.2.3-.4.6-.6.9h1.7c0,0,.2,0,.2-.1.1-.1.3-.3.4-.4,0,0,.2,0,.3,0,.4.3.8.5,1,.8,0,.1.1.2,0,.3,0,.1-.2.2-.4.2,0,0-.2,0-.2.2-.4.8-.8,1.4-1.3,1.9-.6.6-1.2,1-2,1.4-.7.4-1.4.6-2.2.8-.8.2-1.4.2-1.8.2-.1,0-.2,0-.2,0,0,0,0,0,.1,0,1.4-.3,2.6-.9,3.5-1.6-.3-.1-.4-.4-.4-.7,0-.5-.2-.9-.4-1.2-.8.7-1.7,1.3-2.7,1.6h0ZM174.2,49.5c0,.2,0,.4,0,.6.7-.8,1.2-1.5,1.4-2.2h-2.1c-.2.3-.3.6-.5.9.5.1.9.4,1.1.8h0ZM174.8,55.7c.7-.7,1.2-1.5,1.5-2.3,0,0,0-.1,0-.1,0,0,0,0,0,0h-2.1c0,.1-.1.2-.2.3-.2.2-.4.4-.6.6.6.3,1.1.6,1.3,1.1,0,.1,0,.3,0,.4Z"/>
      <path class="st3" d="M189.1,52.3v3.7c0,0,.1,0,.2,0,.9-.1,1.9-.4,3-.7.1,0,.2,0,.2,0,0,0,0,.1,0,.2-.7.4-1.5.9-2.6,1.3-.7.3-1.4.5-2.1.8-.3,0-.4.2-.4.3,0,.2-.1.3-.3.3-.1,0-.2,0-.3-.3-.2-.4-.3-.9-.4-1.4,0-.1,0-.2.2-.2.4,0,.8,0,1.2,0v-10.1c0-.1,0-.2,0-.2.4.1.8.3,1.2.5h.2s5.8,0,5.8,0c0,0,.2-.2.5-.5,0,0,0,0,.2,0,.4.2.8.4,1.2.7.3.2.2.4-.1.5,0,0-.1.1-.1.2v2.5c0,.2,0,.3-.2.4-.2,0-.4.1-.7.2-.2,0-.3,0-.4-.2,0,0-.1-.2-.1-.4v-.3h-2.2c0,.9.1,1.7.3,2.4h1.7c.1,0,.2,0,.3-.1.2-.3.5-.6.7-1,0,0,.2,0,.3,0,.5.3,1,.7,1.3,1.2,0,0,0,.1,0,.2,0,0-.1,0-.2,0h-4c.2.8.5,1.6,1.2,2.4.8,1,1.5,1.5,1.9,1.4.2,0,.6-.5,1-1.3,0,0,.1,0,.2,0,0,0,.1,0,0,.2,0,.4-.2.8-.2,1.3,0,.2,0,.4.1.6.3.3.3.6.1.9-.2.2-.5.3-.9.2-.6,0-1.2-.3-1.8-.7-.1,0-.3-.2-.4-.3-1.5-1.1-2.4-2.6-2.7-4.7h-2.8,0ZM189.1,49.2h6.1v-2.4c0,0,0-.1-.1,0h-6v2.5h0ZM191.7,49.6h-2.5v2.4h2.8c-.1-.7-.2-1.5-.2-2.4Z"/>
      <path class="st3" d="M72,3.7h-.4v57.2h.4V3.7Z"/>
      <path class="st0" d="M4.9,23.7c20.3,5.3,40.6-6.9,53.7-19.3H0v16.4c0,.8.5,1.6,1.3,1.8,1.2.4,2.4.8,3.6,1.1Z"/>
      <path class="st1" d="M60.3,5.3C47.1,23.9,23.8,33.4,2,28.3l-2-.5v31.1h60.4V7.1c0-.8.2-1.5.6-2.2,1.4-2.6,1.4-4.3,1.4-4.3-.3,1.4-1.1,3.1-2,4.7ZM26.8,55.3c0,.3-.2.5-.5.5h-6.3c-.3,0-.8,0-1.5-.1-.5,0-1.1,0-1.8,0-1.5,0-2.2,0-2.7.2h-.3c0,0-.2-.3-.2-.3,0-.2,0-.5.3-.5h0c1.1-.3,1.2-.5,1.2-1.8v-11.3c0-1.5-.2-1.8-1.1-1.9-.2,0-.4-.2-.4-.4s.2-.4.4-.4c.7,0,1.5,0,2.7,0h9c.3,0,.5.2.5.5,0,1.4,0,2.6.2,3.8v.2s-.1.2-.1.2c-.1,0-.3.1-.4,0h-.2c0,0,0-.4,0-.4-.2-2-1.8-3.4-3.8-3.5h-2c-.3,0-.5,0-.6.1-.1.1-.2.3-.2.5v5.8h1.1c1.7,0,2.7-1,2.7-2.5s.2-.4.4-.4.4.2.4.4c-.1,2.2-.1,4.2,0,6.2,0,.3-.2.5-.4.5h-.2l-.2-.3v-.2c0-1.8-1-2.9-2.7-2.9h-1.1s0,5.8,0,5.8c0,.6.2,1.2.5,1.5.2.2.4.3.7.3h2.3c2,0,3.6-1.7,3.8-4v-.3s.4,0,.4,0c.2,0,.4.2.4.4-.1,1.6-.2,3-.2,4.3h0ZM42,51.7v2.9c0,.2-.1.4-.5.4l-1.4-.2c-.2,0-.6.2-1,.4-.7.4-1.7.9-3.2.9-4.4,0-8.1-4-8.1-8.7s3.8-8.5,8.2-8.5,3,.6,4.1,1.6l.7-1.1h.3c.2.1.3.3.3.5-.1,1.4-.1,2.8,0,4v.2s-.3.3-.3.3h-.3c-.2-.2-.2-.3-.2-.5-.5-2.7-2.1-4.2-4.6-4.2-3.7,0-4.1,5.4-4.1,7.7s.4,7.8,4,7.8,2.6-1,2.6-3.5-.1-1.9-1.6-2h-.3s0-.6,0-.6l.2-.2h.2c.8,0,1.7,0,2.7,0h1.5c.6,0,1.2,0,1.9,0h.4s0,.4,0,.4c0,.2-.2.4-.4.4-.8,0-1,.3-1,1.9h0ZM42.4,55.8l1.2-.7c.8-.5,1.6-2.3,1.8-2.9l.6-1.5h1l-.7,1.9c-.5,1.2-.2,2.2.6,2.6l1.7.7h-6.3ZM51.1,55.8l1.9-.7c.2,0,.3-.2.3-.3.1-.2,0-.7-.3-1.4l-1.5-3.7h0l-2.5-6.4,1.4-4.1c0-.2.3-.3.5-.4h0c.2,0,.4.1.5.3l5.7,13.7c0,.2.1.3.2.5.3.7.6,1.5,1.1,1.8l1.3.7h-8.5Z"/>
    </g>
  </g>
</svg>