<svg width="17" height="14" viewBox="0 0 17 14" fill="none" xmlns="http://www.w3.org/2000/svg">
<path d="M12.3839 6.53601C13.0146 6.70801 13.6596 6.95168 14.3189 7.26701C14.9496 7.58234 15.4799 8.01234 15.9099 8.55701C16.3399 9.13034 16.5549 9.84701 16.5549 10.707C16.5549 11.5957 16.2396 12.3267 15.6089 12.9C14.9783 13.4733 14.1756 13.76 13.2009 13.76C12.1976 13.76 11.3663 13.4017 10.7069 12.685C10.0189 11.997 9.67493 10.9507 9.67493 9.54601C9.67493 8.39934 9.87559 7.20968 10.2769 5.97701C10.6783 4.77301 11.3519 3.64068 12.2979 2.58001C13.2439 1.54801 14.5196 0.688009 16.1249 9.46908e-06L16.8989 1.29001C15.4083 2.03534 14.3046 2.92401 13.5879 3.95601C12.8426 4.98801 12.4413 5.84801 12.3839 6.53601ZM2.70893 6.53601C3.36826 6.70801 4.01326 6.95167 4.64393 7.26701C5.27459 7.58234 5.80493 8.01234 6.23493 8.55701C6.66493 9.13034 6.87993 9.84701 6.87993 10.707C6.87992 11.5957 6.56459 12.3267 5.93393 12.9C5.30326 13.4733 4.50059 13.76 3.52593 13.76C2.52259 13.76 1.69126 13.4017 1.03193 12.685C0.343926 11.997 -7.4141e-05 10.9507 -7.40182e-05 9.54601C-7.3918e-05 8.39934 0.200593 7.20967 0.601926 5.97701C1.00326 4.77301 1.69126 3.64068 2.66593 2.58001C3.61193 1.54801 4.88759 0.688008 6.49293 8.62702e-06L7.22393 1.29001C5.73326 2.03534 4.62959 2.92401 3.91293 3.95601C3.16759 4.98801 2.76626 5.84801 2.70893 6.53601Z" fill="#3F5768"/>
</svg>
