<svg width="17" height="14" viewBox="0 0 17 14" fill="none" xmlns="http://www.w3.org/2000/svg">
<path d="M4.515 7.224C3.88433 7.052 3.23933 6.80833 2.58 6.493C1.94933 6.17767 1.419 5.74767 0.989 5.203C0.559 4.62967 0.344 3.913 0.344 3.053C0.344 2.16433 0.659334 1.43333 1.29 0.859999C1.92067 0.286666 2.72333 0 3.698 0C4.70133 0 5.53267 0.358333 6.192 1.075C6.88 1.763 7.224 2.80933 7.224 4.214C7.224 5.36067 7.02333 6.55033 6.622 7.783C6.22067 8.987 5.547 10.1193 4.601 11.18C3.655 12.212 2.37933 13.072 0.774 13.76L0 12.47C1.49067 11.7247 2.59433 10.836 3.311 9.804C4.05633 8.772 4.45767 7.912 4.515 7.224ZM14.19 7.224C13.5307 7.052 12.8857 6.80833 12.255 6.493C11.6243 6.17767 11.094 5.74767 10.664 5.203C10.234 4.62967 10.019 3.913 10.019 3.053C10.019 2.16433 10.3343 1.43333 10.965 0.859999C11.5957 0.286666 12.3983 0 13.373 0C14.3763 0 15.2077 0.358333 15.867 1.075C16.555 1.763 16.899 2.80933 16.899 4.214C16.899 5.36067 16.6983 6.55033 16.297 7.783C15.8957 8.987 15.2077 10.1193 14.233 11.18C13.287 12.212 12.0113 13.072 10.406 13.76L9.675 12.47C11.1657 11.7247 12.2693 10.836 12.986 9.804C13.7313 8.772 14.1327 7.912 14.19 7.224Z" fill="#3F5768"/>
</svg>
