<svg width="40" height="40" viewBox="0 0 40 40" fill="none" xmlns="http://www.w3.org/2000/svg">
<g clip-path="url(#clip0_30_565)">
<path d="M18.5875 7.5C22.3779 7.68208 26.1683 7.88693 29.9587 8.09177C30.4709 8.11453 30.9831 8.20558 31.4953 8.34214C33.1753 8.77459 34.3227 9.91262 34.6095 11.8017C34.9169 13.7819 35.0808 15.7848 35.1832 17.7878C35.3471 20.9515 35.2037 24.1152 34.8144 27.2561C34.4251 30.3971 33.1139 31.7855 30.225 32.0359C23.2794 32.6504 16.3338 32.6276 9.38819 32.1269C8.6506 32.0814 7.89253 31.9676 7.15494 31.8083C5.39293 31.4213 4.2046 30.2605 3.89727 28.3031C3.58994 26.323 3.42603 24.32 3.32359 22.3171C3.15968 18.8347 3.24164 15.3751 3.85629 11.9383C4.24557 9.77605 5.57733 8.38766 7.56471 8.22834C11.0478 7.95521 14.5308 7.84141 18.0343 7.65932C18.2187 7.65932 18.4031 7.65932 18.5875 7.65932C18.5875 7.6138 18.5875 7.56828 18.5875 7.52276V7.5ZM16.1084 14.7606V25.367C18.8744 23.5917 21.5993 21.8619 24.3858 20.0638C21.5993 18.2657 18.8744 16.5359 16.1084 14.7606Z" fill="#BF9771"/>
</g>
<defs>
<clipPath id="clip0_30_565">
<rect width="40" height="40" rx="20" fill="white"/>
</clipPath>
</defs>
</svg>
